<svg width="1843" height="453" viewBox="0 0 1843 453" fill="none" xmlns="http://www.w3.org/2000/svg">
<g opacity="0.08">
<path d="M1412.9 33.2689C1413.46 31.3765 1415.46 30.2707 1417.37 30.8031C1419.27 31.3337 1420.35 33.2954 1419.79 35.1858C1419.23 37.0781 1417.24 38.184 1415.33 37.6517C1413.43 37.1211 1412.35 35.1593 1412.9 33.2689Z" fill="#00B1E2" stroke="#00B1E2"/>
<path d="M1116.66 119.125C1117.57 116.052 1120.81 114.254 1123.9 115.118C1126.99 115.98 1128.75 119.167 1127.84 122.236C1126.93 125.31 1123.7 127.107 1120.61 126.244C1117.52 125.381 1115.76 122.194 1116.66 119.125Z" fill="#00B1E2" stroke="#00B1E2"/>
<path d="M1187.18 112.715C1187.78 110.679 1189.93 109.485 1191.98 110.059C1194.02 110.633 1195.19 112.744 1194.59 114.775C1193.98 116.81 1191.84 118.004 1189.79 117.43C1187.74 116.857 1186.58 114.745 1187.18 112.715Z" fill="#00B1E2" stroke="#00B1E2"/>
<path d="M1401.16 82.5482C1402 79.7095 1404.99 78.0474 1407.85 78.8455C1410.7 79.6424 1412.33 82.5896 1411.49 85.4243C1410.65 88.2631 1407.66 89.9252 1404.8 89.1271C1401.95 88.3302 1400.32 85.383 1401.16 82.5482Z" fill="#00B1E2" stroke="#00B1E2"/>
<path d="M1494.55 97.6489C1495.11 95.749 1497.11 94.6364 1499.03 95.1719C1500.94 95.7062 1502.02 97.6773 1501.46 99.5732C1500.9 101.473 1498.89 102.586 1496.98 102.05C1495.07 101.516 1493.99 99.5447 1494.55 97.6489Z" fill="#00B1E2" stroke="#00B1E2"/>
<path d="M1220.77 -10.3381C1221.78 -13.7481 1225.37 -15.7448 1228.8 -14.784C1232.23 -13.824 1234.18 -10.2856 1233.17 -6.88134C1232.16 -3.47132 1228.57 -1.47465 1225.14 -2.43543C1221.72 -3.39549 1219.76 -6.9339 1220.77 -10.3381Z" fill="#00B1E2" stroke="#00B1E2"/>
<path d="M1113.9 197.47L1113.9 197.469C1114.98 193.815 1118.83 191.678 1122.51 192.707L1122.51 192.707C1126.18 193.73 1128.27 197.522 1127.19 201.173L1127.19 201.173C1126.12 204.827 1122.26 206.964 1118.59 205.936C1114.92 204.908 1112.82 201.12 1113.9 197.47Z" fill="#00B1E2" stroke="#00B1E2"/>
<path d="M1486.65 272.803C1487.35 270.415 1489.87 269.018 1492.28 269.69C1494.67 270.362 1496.04 272.84 1495.34 275.223C1494.63 277.61 1492.11 279.008 1489.71 278.335C1487.31 277.664 1485.94 275.186 1486.65 272.803Z" fill="#00B1E2" stroke="#00B1E2"/>
<path d="M1634.63 212.345C1635.18 210.478 1637.15 209.383 1639.03 209.91C1640.91 210.438 1641.98 212.371 1641.43 214.236C1640.88 216.107 1638.91 217.198 1637.02 216.671C1635.15 216.143 1634.08 214.211 1634.63 212.345Z" fill="#00B1E2" stroke="#00B1E2"/>
<path d="M1140.98 33.097C1139.67 30.7195 1140.55 27.7046 1142.96 26.3653C1145.37 25.026 1148.38 25.8743 1149.69 28.2518C1151 30.6292 1150.12 33.6441 1147.71 34.9834C1145.3 36.3227 1142.29 35.4744 1140.98 33.097Z" fill="#00B1E2" stroke="#00B1E2"/>
<path d="M1187.9 274.587L1187.9 274.586C1188.91 271.19 1192.49 269.202 1195.9 270.161L1195.9 270.161C1199.32 271.113 1201.26 274.638 1200.26 278.031L1200.26 278.031C1199.25 281.428 1195.67 283.415 1192.26 282.457L1192.26 282.457C1188.85 281.504 1186.9 277.98 1187.9 274.587Z" fill="#00B1E2" stroke="#00B1E2"/>
<path d="M1031.86 94.0197C1032.6 91.54 1035.21 90.0874 1037.71 90.7837C1040.2 91.4785 1041.62 94.055 1040.89 96.5317C1040.16 99.0113 1037.54 100.464 1035.05 99.7677C1032.56 99.073 1031.13 96.4964 1031.86 94.0197Z" fill="#00B1E2" stroke="#00B1E2"/>
<path d="M1424.68 138.983C1425.06 137.726 1426.39 136.983 1427.67 137.336C1428.93 137.689 1429.65 138.997 1429.28 140.259C1428.91 141.516 1427.58 142.259 1426.3 141.906C1425.04 141.553 1424.32 140.245 1424.68 138.983Z" fill="#00B1E2" stroke="#00B1E2"/>
<path d="M1290.93 85.7881C1288.7 83.8106 1288.52 80.3817 1290.53 78.1295C1292.53 75.8774 1295.96 75.6538 1298.19 77.6313C1300.41 79.6087 1300.59 83.0375 1298.59 85.2896C1296.58 87.5417 1293.16 87.7655 1290.93 85.7881Z" fill="#00B1E2" stroke="#00B1E2"/>
<path d="M1110.5 30.3637L1110.5 30.3633C1111.38 27.3775 1114.53 25.6315 1117.53 26.4716L1117.53 26.4717C1120.53 27.3097 1122.23 30.4072 1121.35 33.383C1120.47 36.3647 1117.32 38.1151 1114.33 37.2751L1114.33 37.275C1111.33 36.437 1109.62 33.3395 1110.5 30.3637Z" fill="#00B1E2" stroke="#00B1E2"/>
<path d="M1082.78 227.953L1082.78 227.953C1083.7 224.828 1087 223.003 1090.14 223.88L1090.14 223.881C1093.28 224.756 1095.07 227.999 1094.14 231.116L1094.14 231.117C1093.22 234.242 1089.93 236.067 1086.79 235.189L1086.79 235.189C1083.65 234.314 1081.86 231.07 1082.78 227.953Z" fill="#00B1E2" stroke="#00B1E2"/>
<path d="M1016.45 181.887C1014.29 178.823 1015.06 174.565 1018.16 172.378C1021.26 170.191 1025.52 170.906 1027.67 173.97C1029.82 177.033 1029.06 181.291 1025.95 183.478C1022.85 185.665 1018.6 184.951 1016.45 181.887Z" fill="#00B1E2" stroke="#00B1E2"/>
<path d="M1342.73 37.7825C1343.34 35.7181 1345.52 34.5104 1347.6 35.0883C1349.67 35.6646 1350.85 37.8089 1350.24 39.8688C1349.63 41.9332 1347.46 43.1409 1345.38 42.563C1343.31 41.9867 1342.12 39.8424 1342.73 37.7825Z" fill="#00B1E2" stroke="#00B1E2"/>
<path d="M1312.99 72.7647C1313.45 71.2177 1315.08 70.3144 1316.64 70.747C1318.19 71.1829 1319.07 72.7831 1318.62 74.3262C1318.16 75.8731 1316.54 76.7764 1314.98 76.3439C1313.42 75.908 1312.54 74.3078 1312.99 72.7647Z" fill="#00B1E2" stroke="#00B1E2"/>
<path d="M1488.7 6.78517C1489.33 4.65797 1491.57 3.4149 1493.72 4.01286C1495.85 4.60909 1497.07 6.81497 1496.44 8.93999C1495.81 11.0672 1493.57 12.3103 1491.43 11.7124C1489.29 11.1161 1488.08 8.9102 1488.7 6.78517Z" fill="#00B1E2" stroke="#00B1E2"/>
<path d="M1438.81 18.0782C1437.65 14.4591 1439.68 10.5468 1443.35 9.34722C1447.02 8.14768 1450.92 10.1211 1452.08 13.7402C1453.24 17.3593 1451.21 21.2716 1447.54 22.4711C1443.87 23.6706 1439.96 21.6973 1438.81 18.0782Z" fill="#00B1E2" stroke="#00B1E2"/>
<path d="M1389.4 56.2223C1390.58 52.2437 1394.77 49.9177 1398.77 51.0368C1402.76 52.155 1405.05 56.2801 1403.87 60.2536C1402.69 64.2322 1398.5 66.5583 1394.51 65.4392C1390.51 64.321 1388.23 60.1958 1389.4 56.2223Z" fill="#00B1E2" stroke="#00B1E2"/>
<path d="M1260.1 78.2155C1261.01 75.131 1264.27 73.3282 1267.37 74.1944C1270.47 75.0591 1272.23 78.2602 1271.33 81.3415C1270.42 84.426 1267.16 86.2288 1264.06 85.3626C1260.96 84.4979 1259.2 81.2968 1260.1 78.2155Z" fill="#00B1E2" stroke="#00B1E2"/>
<path d="M1587.67 92.4253C1588.33 90.1841 1590.69 88.8744 1592.95 89.5058C1595.2 90.1364 1596.48 92.4545 1595.82 94.6903C1595.15 96.9315 1592.8 98.2413 1590.54 97.6099C1588.29 96.9793 1587.01 94.6611 1587.67 92.4253Z" fill="#00B1E2" stroke="#00B1E2"/>
<path d="M1491.13 32.5216C1486.33 30.208 1484.35 24.4005 1486.72 19.5513C1489.08 14.7022 1494.89 12.6447 1499.69 14.9583C1504.49 17.2719 1506.46 23.0793 1504.1 27.9284C1501.73 32.7776 1495.93 34.8352 1491.13 32.5216Z" fill="#00B1E2" stroke="#00B1E2"/>
<path d="M1325.45 199.875L1325.45 199.875C1326.54 196.163 1330.46 193.992 1334.19 195.037L1334.19 195.037C1337.92 196.077 1340.05 199.93 1338.95 203.639L1338.95 203.64C1337.86 207.352 1333.94 209.523 1330.21 208.478L1330.21 208.477C1326.48 207.438 1324.35 203.585 1325.45 199.875Z" fill="#00B1E2" stroke="#00B1E2"/>
<path d="M1537.07 98.875C1537.61 97.0442 1539.54 95.9687 1541.38 96.4851C1543.22 97.0009 1544.27 98.8961 1543.73 100.726C1543.19 102.557 1541.26 103.632 1539.42 103.116C1537.58 102.6 1536.53 100.7 1537.07 98.875Z" fill="#00B1E2" stroke="#00B1E2"/>
<path d="M1299.69 288.226C1295.12 285.544 1293.64 279.628 1296.37 275.013C1299.1 270.398 1305.01 268.828 1309.58 271.51C1314.15 274.192 1315.64 280.108 1312.91 284.723C1310.18 289.339 1304.26 290.908 1299.69 288.226Z" fill="#00B1E2" stroke="#00B1E2"/>
<path d="M1352.83 243.94C1348 242.85 1345.01 238.009 1346.15 233.126C1347.3 228.244 1352.14 225.17 1356.97 226.259C1361.8 227.349 1364.79 232.19 1363.64 237.073C1362.5 241.955 1357.66 245.03 1352.83 243.94Z" fill="#00B1E2" stroke="#00B1E2"/>
<path d="M1669.05 132.344C1665.07 131.367 1662.67 127.315 1663.69 123.293C1664.71 119.271 1668.76 116.803 1672.74 117.78C1676.72 118.757 1679.12 122.809 1678.1 126.831C1677.08 130.852 1673.03 133.32 1669.05 132.344Z" fill="#00B1E2" stroke="#00B1E2"/>
<path d="M1608.78 197.239C1610.03 193.021 1614.47 190.56 1618.71 191.744C1622.95 192.926 1625.36 197.301 1624.12 201.516C1622.87 205.733 1618.43 208.194 1614.19 207.01C1609.95 205.828 1607.54 201.453 1608.78 197.239Z" fill="#00B1E2" stroke="#00B1E2"/>
<path d="M1449.02 164.693C1445.65 163.399 1444 159.589 1445.33 156.184C1446.66 152.779 1450.47 151.067 1453.84 152.361C1457.21 153.655 1458.86 157.466 1457.53 160.871C1456.2 164.275 1452.39 165.988 1449.02 164.693Z" fill="#00B1E2" stroke="#00B1E2"/>
<path d="M1498.2 45.395C1494.74 43.4248 1493.56 38.993 1495.57 35.4971C1497.58 32.0012 1502.01 30.7621 1505.47 32.7323C1508.93 34.7024 1510.11 39.1341 1508.1 42.63C1506.09 46.1259 1501.66 47.3651 1498.2 45.395Z" fill="#00B1E2" stroke="#00B1E2"/>
<path d="M1487.08 142.694L1487.08 142.694C1487.82 140.185 1490.47 138.719 1492.99 139.425L1492.99 139.425C1495.51 140.128 1496.95 142.733 1496.21 145.234L1496.21 145.234C1495.47 147.743 1492.82 149.209 1490.3 148.503L1490.3 148.503C1487.78 147.8 1486.34 145.195 1487.08 142.694Z" fill="#00B1E2" stroke="#00B1E2"/>
<path d="M1187.35 68.1493C1188.36 64.6944 1192.01 62.6731 1195.48 63.6434C1198.95 64.6126 1200.93 68.1981 1199.91 71.649C1198.9 75.1039 1195.25 77.1252 1191.78 76.1549C1188.31 75.1857 1186.33 71.6002 1187.35 68.1493Z" fill="#00B1E2" stroke="#00B1E2"/>
<path d="M1438.35 326.91C1436.41 325.97 1435.62 323.621 1436.58 321.663C1437.54 319.705 1439.89 318.877 1441.83 319.817C1443.77 320.757 1444.56 323.107 1443.6 325.065C1442.64 327.023 1440.29 327.85 1438.35 326.91Z" fill="#00B1E2" stroke="#00B1E2"/>
<path d="M1340.99 160.577C1337.97 159.736 1334.81 161.492 1333.93 164.489C1333.05 167.488 1334.76 170.6 1337.78 171.439C1340.8 172.279 1343.96 170.523 1344.84 167.526L1340.99 160.577ZM1340.99 160.577C1344.01 161.416 1345.72 164.527 1344.84 167.526L1340.99 160.577Z" fill="#00B1E2" stroke="#00B1E2"/>
<path d="M1402.43 222.34C1399.72 222.44 1397.48 220.347 1397.41 217.687C1397.34 215.026 1399.48 212.772 1402.19 212.672C1404.91 212.571 1407.15 214.664 1407.22 217.325C1407.28 219.985 1405.15 222.239 1402.43 222.34Z" fill="#00B1E2" stroke="#00B1E2"/>
<path d="M1447.14 123.231C1444.48 122.176 1443.2 119.139 1444.28 116.448C1445.36 113.757 1448.4 112.429 1451.06 113.484C1453.73 114.539 1455.01 117.577 1453.93 120.268C1452.85 122.958 1449.81 124.286 1447.14 123.231Z" fill="#00B1E2" stroke="#00B1E2"/>
<path d="M1664.89 0.0750639C1665.94 -3.49709 1669.7 -5.58345 1673.29 -4.58024C1676.88 -3.57831 1678.93 0.124787 1677.87 3.69315C1676.82 7.26531 1673.06 9.35163 1669.47 8.34842C1665.88 7.34649 1663.83 3.64341 1664.89 0.0750639Z" fill="#00B1E2" stroke="#00B1E2"/>
<path d="M1198.04 194.139C1194.5 194.339 1191.52 191.668 1191.36 188.192C1191.2 184.716 1193.93 181.721 1197.47 181.52C1201.01 181.32 1203.99 183.992 1204.15 187.468C1204.31 190.943 1201.58 193.938 1198.04 194.139Z" fill="#00B1E2" stroke="#00B1E2"/>
<path d="M1191.97 131.015C1192.89 127.905 1196.17 126.085 1199.3 126.96C1202.43 127.835 1204.21 131.064 1203.29 134.169C1202.37 137.278 1199.09 139.099 1195.96 138.223C1192.84 137.349 1191.06 134.12 1191.97 131.015Z" fill="#00B1E2" stroke="#00B1E2"/>
<path d="M1029.58 285.772C1030.77 281.765 1034.99 279.425 1039.02 280.547C1043.04 281.674 1045.33 285.827 1044.16 289.829C1042.97 293.837 1038.75 296.176 1034.73 295.054C1030.7 293.928 1028.41 289.774 1029.58 285.772Z" fill="#00B1E2" stroke="#00B1E2"/>
<path d="M1737.74 51.979C1736.34 47.2232 1739.09 42.1779 1743.91 40.7182C1748.73 39.2585 1753.77 41.9431 1755.18 46.6988C1756.58 51.4546 1753.83 56.4999 1749.01 57.9596C1744.19 59.4193 1739.15 56.7347 1737.74 51.979Z" fill="#00B1E2" stroke="#00B1E2"/>
<path d="M1133.79 418.978C1134.84 415.44 1138.56 413.375 1142.12 414.366C1145.67 415.361 1147.7 419.027 1146.66 422.559C1145.61 426.097 1141.88 428.162 1138.33 427.171C1134.77 426.176 1132.75 422.51 1133.79 418.978Z" fill="#00B1E2" stroke="#00B1E2"/>
<path d="M1459.21 216.01L1459.21 216.011C1458.53 218.329 1459.86 220.742 1462.2 221.397C1464.53 222.05 1466.99 220.692 1467.68 218.363L1459.21 216.01ZM1459.21 216.01C1459.9 213.684 1462.35 212.324 1464.69 212.977L1464.69 212.977M1459.21 216.01L1464.69 212.977M1464.69 212.977C1467.03 213.627 1468.36 216.044 1467.68 218.363L1464.69 212.977Z" fill="#00B1E2" stroke="#00B1E2"/>
<path d="M1400.63 104.859C1401.79 100.957 1405.9 98.6793 1409.82 99.7763C1413.74 100.872 1415.97 104.918 1414.82 108.816C1413.67 112.717 1409.56 114.995 1405.63 113.898C1401.72 112.802 1399.48 108.756 1400.63 104.859Z" fill="#00B1E2" stroke="#00B1E2"/>
<path d="M1406.12 83.9912L1416.55 34.2241" stroke="#00B1E2" stroke-linecap="round"/>
<path d="M1190.89 113.589L1122.25 120.835" stroke="#00B1E2" stroke-width="2.87" stroke-linecap="round"/>
<path d="M1190.35 113.743L1246.53 -8.0841" stroke="#00B1E2" stroke-linecap="round"/>
<path d="M1246 -8.4834L1141.88 -108.331" stroke="#00B1E2" stroke-linecap="round"/>
<path d="M1122.53 120.681L1120.27 199.323" stroke="#00B1E2" stroke-linecap="round"/>
<path d="M1191.26 113.743L1120.17 199.323" stroke="#00B1E2" stroke-linecap="round"/>
<path d="M1498 98.2847L1406.33 84.318" stroke="#00B1E2" stroke-linecap="round"/>
<path d="M1190.89 113.614L1145.36 30.9797" stroke="#00B1E2" stroke-linecap="round"/>
<path d="M1193.55 276.305L1191.41 113.743" stroke="#00B1E2" stroke-linecap="round"/>
<path d="M1226.97 -8.91943L1141.88 -108.42" stroke="#00B1E2" stroke-linecap="round"/>
<path d="M1144.91 30.8496L1142.33 -108.73" stroke="#00B1E2" stroke-linecap="round"/>
<path d="M1498.63 98.611L1490.37 274.009" stroke="#00B1E2" stroke-width="0.63" stroke-linecap="round"/>
<path d="M1638.17 213.286L1490.85 274.009" stroke="#00B1E2" stroke-linecap="round"/>
<path d="M1227.08 -8.60939L1145.25 30.8497" stroke="#00B1E2" stroke-width="2.87" stroke-linecap="round"/>
<path d="M1194.08 276.028L1120.54 199.6" stroke="#00B1E2" stroke-linecap="round"/>
<path d="M1498.14 98.6112L1426.84 139.619" stroke="#00B1E2" stroke-linecap="round"/>
<path d="M1294.63 81.6167L1226.97 -8.37453" stroke="#00B1E2" stroke-linecap="round"/>
<path d="M1490.99 273.852L1426.98 139.777" stroke="#00B1E2" stroke-linecap="round"/>
<path d="M1145.58 30.8496L1036.16 95.2778" stroke="#00B1E2" stroke-linecap="round"/>
<path d="M1120.67 199.322L1088.34 229.532" stroke="#00B1E2" stroke-linecap="round"/>
<path d="M1022.1 178.429L1120.54 198.959" stroke="#00B1E2" stroke-linecap="round"/>
<path d="M1115.93 31.9556L1145.36 30.769" stroke="#00B1E2" stroke-width="2.87" stroke-linecap="round"/>
<path d="M1116.18 31.875L1036.13 95.2778" stroke="#00B1E2" stroke-linecap="round"/>
<path d="M1584.1 -47.8716L1492.38 7.85711" stroke="#00B1E2" stroke-width="1.14" stroke-linecap="round"/>
<path d="M1086.69 -100.818L1145.36 30.7173" stroke="#00B1E2" stroke-linecap="round"/>
<path d="M1194.08 275.886L1088.47 229.951" stroke="#00B1E2" stroke-linecap="round"/>
<path d="M1088.47 229.44L1036.38 95.3693" stroke="#00B1E2" stroke-linecap="round"/>
<path d="M1021.77 178.065L1036.72 95.2776" stroke="#00B1E2" stroke-width="2.87" stroke-linecap="round"/>
<path d="M1479.12 -76.5513L1492.4 7.85716" stroke="#00B1E2" stroke-linecap="round"/>
<path d="M1391.58 -33.9161L1346.16 38.8268" stroke="#00B1E2" stroke-width="2.87" stroke-linecap="round"/>
<path d="M1294.46 81.8514L1346.65 38.827" stroke="#00B1E2" stroke-width="2.87" stroke-linecap="round"/>
<path d="M1086.83 -100.949L1115.79 31.8753" stroke="#00B1E2" stroke-linecap="round"/>
<path d="M1294.62 81.8514L1315.82 73.5453" stroke="#00B1E2" stroke-width="2.87" stroke-linecap="round"/>
<path d="M1391.26 -33.7058L1445.45 15.6816" stroke="#00B1E2" stroke-linecap="round"/>
<path d="M1391.54 -33.9157L1396.36 58.238" stroke="#00B1E2" stroke-linecap="round"/>
<path d="M1426.98 139.571L1396.64 58.2866" stroke="#00B1E2" stroke-linecap="round"/>
<path d="M1288.16 -57.2086L1346.48 38.647" stroke="#00B1E2" stroke-linecap="round"/>
<path d="M1022.1 178.328L1088.47 229.269" stroke="#00B1E2" stroke-width="2.87" stroke-linecap="round"/>
<path d="M1294.63 81.7568L1265.72 79.87" stroke="#00B1E2" stroke-width="2.87" stroke-linecap="round"/>
<path d="M1288.32 -57.3882L1315.65 73.5455" stroke="#00B1E2" stroke-linecap="round"/>
<path d="M1427.21 139.619L1331.98 201.752" stroke="#00B1E2" stroke-linecap="round"/>
<path d="M1315.66 73.5457L1346.63 38.8274" stroke="#00B1E2" stroke-width="2.87" stroke-linecap="round"/>
<path d="M1346.48 39.0246L1396.64 58.0405" stroke="#00B1E2" stroke-width="2.87" stroke-linecap="round"/>
<path d="M1445.45 15.964L1492.57 7.78418" stroke="#00B1E2" stroke-width="2.87" stroke-linecap="round"/>
<path d="M1346.6 38.827L1265.59 79.7752" stroke="#00B1E2" stroke-width="2.87" stroke-linecap="round"/>
<path d="M1315.81 73.6509L1396.64 58.1323" stroke="#00B1E2" stroke-width="2.87" stroke-linecap="round"/>
<path d="M1315.81 73.4431L1265.72 79.8774" stroke="#00B1E2" stroke-width="2.87" stroke-linecap="round"/>
<path d="M1445.62 15.8913L1396.47 58.2376" stroke="#00B1E2" stroke-width="2.87" stroke-linecap="round"/>
<path d="M1265.72 79.9868L1396.64 58.0264" stroke="#00B1E2" stroke-linecap="round"/>
<path d="M1495.48 23.853L1492.6 7.85752" stroke="#00B1E2" stroke-width="2.87" stroke-linecap="round"/>
<path d="M1495.51 23.6748L1445.45 16.0701" stroke="#00B1E2" stroke-width="2.87" stroke-linecap="round"/>
<path d="M1540.4 99.6724L1492.57 7.98746" stroke="#00B1E2" stroke-linecap="round"/>
<path d="M1495.56 23.8528L1396.58 58.2379" stroke="#00B1E2" stroke-linecap="round"/>
<path d="M1540.39 99.9079L1591.74 93.4548" stroke="#00B1E2" stroke-width="2.87" stroke-linecap="round"/>
<path d="M1540.4 99.666L1495.51 23.9889" stroke="#00B1E2" stroke-width="2.87" stroke-linecap="round"/>
<path d="M1332.54 201.752L1304.42 279.994" stroke="#00B1E2" stroke-width="2.87" stroke-linecap="round"/>
<path d="M1670.87 124.731L1591.74 93.8732" stroke="#00B1E2" stroke-width="2.87" stroke-linecap="round"/>
<path d="M1332.2 201.828L1354.96 235.06" stroke="#00B1E2" stroke-width="2.87" stroke-linecap="round"/>
<path d="M1355.15 235.135L1304.58 279.994" stroke="#00B1E2" stroke-width="2.87" stroke-linecap="round"/>
<path d="M1616.37 199.374L1591.83 93.5611" stroke="#00B1E2" stroke-linecap="round"/>
<path d="M1540.61 99.8017L1451.29 158.582" stroke="#00B1E2" stroke-linecap="round"/>
<path d="M1616.13 199.374L1671.19 125.043" stroke="#00B1E2" stroke-width="2.87" stroke-linecap="round"/>
<path d="M1354.66 235.135L1451.8 158.583" stroke="#00B1E2" stroke-linecap="round"/>
<path d="M1439.95 322.919L1354.96 235.456" stroke="#00B1E2" stroke-linecap="round"/>
<path d="M1543.53 -69.0693L1501.44 39.1503" stroke="#00B1E2" stroke-linecap="round"/>
<path d="M1491.67 143.961L1451.47 158.583" stroke="#00B1E2" stroke-width="2.87" stroke-linecap="round"/>
<path d="M1439.34 323.241L1452.11 158.582" stroke="#00B1E2" stroke-width="1.38" stroke-linecap="round"/>
<path d="M1501.9 38.8828L1425.24 -61.8634" stroke="#00B1E2" stroke-linecap="round"/>
<path d="M1402.1 217.515L1451.75 158.582" stroke="#00B1E2" stroke-linecap="round"/>
<path d="M1502.3 39.1506L1491.25 143.961" stroke="#00B1E2" stroke-width="2.87" stroke-linecap="round"/>
<path d="M1449.23 118.366L1451.38 158.583" stroke="#00B1E2" stroke-linecap="round"/>
<path d="M1193.63 70.4878L1339.38 165.427" stroke="#00B1E2" stroke-linecap="round"/>
<path d="M1671.38 1.45752L1555.04 -129.007" stroke="#00B1E2" stroke-width="0.62" stroke-linecap="round"/>
<path d="M1502.25 39.1504L1448.77 118.365" stroke="#00B1E2" stroke-width="2.87" stroke-linecap="round"/>
<path d="M1491.94 143.961L1402.06 217.515" stroke="#00B1E2" stroke-linecap="round"/>
<path d="M1491.65 143.79L1449.11 118.536" stroke="#00B1E2" stroke-width="2.87" stroke-linecap="round"/>
<path d="M1439.95 323.188L1402.35 217.567" stroke="#00B1E2" stroke-linecap="round"/>
<path d="M1402.35 217.267L1339.38 166.259" stroke="#00B1E2" stroke-width="2.87" stroke-linecap="round"/>
<path d="M1194 69.9044L1197.18 187.78" stroke="#00B1E2" stroke-linecap="round"/>
<path d="M1197.45 132.588L1193.82 69.9044" stroke="#00B1E2" stroke-width="2.87" stroke-linecap="round"/>
<path d="M1449.55 118.365L1401.92 217.515" stroke="#00B1E2" stroke-linecap="round"/>
<path d="M1197.55 188.027L1339.38 165.764" stroke="#00B1E2" stroke-linecap="round"/>
<path d="M1197.63 133.118L1339.38 165.481" stroke="#00B1E2" stroke-linecap="round"/>
<path d="M1568.31 -105.469L1671.38 1.49854" stroke="#00B1E2" stroke-linecap="round"/>
<path d="M1197.82 132.588L1197.36 187.78" stroke="#00B1E2" stroke-width="2.87" stroke-linecap="round"/>
<path d="M1197.9 187.78L1036.52 287.806" stroke="#00B1E2" stroke-linecap="round"/>
<path d="M1670.78 1.88748L1718.91 -138.612" stroke="#00B1E2" stroke-linecap="round"/>
<path d="M1671.38 2.18824L1746.46 48.9958" stroke="#00B1E2" stroke-width="2.87" stroke-linecap="round"/>
<path d="M1140.22 420.404L1036.87 288.171" stroke="#00B1E2" stroke-width="1.27" stroke-linecap="round"/>
<path d="M1746.07 49.2969L1718.7 -138.612" stroke="#00B1E2" stroke-linecap="round"/>
<path d="M1463.45 217.006L1402.35 217.693" stroke="#00B1E2" stroke-linecap="round"/>
<path d="M1463.23 217.184L1449.33 118.365" stroke="#00B1E2" stroke-linecap="round"/>
<path d="M1463.45 217.037L1407.73 106.984" stroke="#00B1E2" stroke-linecap="round"/>
<path d="M1560.45 45.7964C1560.68 45.0076 1561.52 44.5401 1562.32 44.7632C1563.12 44.9844 1563.57 45.8049 1563.34 46.5918C1563.1 47.3807 1562.27 47.848 1561.46 47.625C1560.67 47.4037 1560.22 46.5832 1560.45 45.7964Z" fill="#00B1E2" stroke="#00B1E2"/>
<path d="M1812.76 6.10824C1813.04 5.14271 1814.07 4.57189 1815.05 4.84398C1816.02 5.11466 1816.57 6.11826 1816.29 7.08048C1816 8.04604 1814.98 8.61689 1814 8.3448C1813.03 8.07412 1812.48 7.07047 1812.76 6.10824Z" fill="#00B1E2" stroke="#00B1E2"/>
<path d="M1390.85 214.788C1390.85 214.787 1390.85 214.786 1390.84 214.787C1390.84 214.787 1390.83 214.791 1390.83 214.795C1390.82 214.798 1390.82 214.802 1390.82 214.802M1390.85 214.788L1390.83 214.83C1390.83 214.83 1390.83 214.829 1390.83 214.828C1390.82 214.824 1390.82 214.816 1390.82 214.807C1390.82 214.805 1390.82 214.803 1390.82 214.802M1390.85 214.788C1390.85 214.788 1390.85 214.789 1390.86 214.79C1390.87 214.795 1390.87 214.806 1390.86 214.817L1390.85 214.788ZM1390.82 214.802C1390.82 214.804 1390.83 214.807 1390.83 214.81C1390.83 214.811 1390.83 214.813 1390.84 214.814C1390.84 214.814 1390.84 214.814 1390.84 214.815C1390.84 214.816 1390.84 214.817 1390.84 214.818C1390.84 214.819 1390.84 214.819 1390.84 214.82C1390.85 214.823 1390.85 214.826 1390.86 214.829C1390.86 214.828 1390.86 214.827 1390.86 214.825L1390.85 214.816L1390.84 214.815L1390.84 214.812L1390.84 214.811L1390.84 214.811L1390.82 214.802Z" fill="#00B1E2" stroke="#00B1E2"/>
<path d="M1677.89 75.198L1678.03 74.7155L1677.89 75.198C1678.84 75.4637 1679.37 76.4345 1679.1 77.3735C1678.82 78.3137 1677.82 78.8677 1676.87 78.6011C1675.92 78.3353 1675.39 77.3645 1675.67 76.4255C1675.95 75.4853 1676.94 74.9314 1677.89 75.198Z" fill="#00B1E2" stroke="#00B1E2"/>
<path d="M1202.82 138.003C1202.86 137.978 1202.91 137.931 1202.93 137.863C1202.93 137.86 1202.93 137.857 1202.93 137.854C1202.97 137.716 1202.88 137.594 1202.77 137.559C1202.77 137.559 1202.77 137.558 1202.77 137.558C1202.7 137.538 1202.63 137.552 1202.58 137.578C1202.54 137.604 1202.49 137.651 1202.47 137.718L1202.82 138.003ZM1202.82 138.003C1202.77 138.03 1202.7 138.043 1202.63 138.023M1202.82 138.003L1202.63 138.023M1202.63 138.023C1202.63 138.023 1202.63 138.023 1202.63 138.022M1202.63 138.023L1202.63 138.022M1202.63 138.022C1202.52 137.988 1202.43 137.865 1202.47 137.727L1202.63 138.022Z" fill="#00B1E2" stroke="#00B1E2"/>
<path d="M1632.07 21.1336C1632.42 19.9787 1633.63 19.3011 1634.8 19.6243C1635.96 19.9514 1636.62 21.1479 1636.28 22.2972C1635.94 23.4525 1634.72 24.1301 1633.55 23.8064C1632.39 23.4845 1631.73 22.2842 1632.07 21.1336Z" fill="#00B1E2" stroke="#00B1E2"/>
<path d="M1715.62 38.4505C1715.95 37.3599 1717.1 36.7176 1718.2 37.0255C1719.3 37.3326 1719.92 38.4632 1719.6 39.5482C1719.28 40.6388 1718.12 41.2811 1717.02 40.9732C1715.93 40.6661 1715.3 39.5354 1715.62 38.4505Z" fill="#00B1E2" stroke="#00B1E2"/>
<path d="M1589.32 31.2821C1589.36 31.1286 1589.53 31.0371 1589.68 31.0814C1589.84 31.1257 1589.92 31.2809 1589.88 31.4255C1589.83 31.5791 1589.67 31.6705 1589.51 31.6263C1589.35 31.5819 1589.27 31.4267 1589.32 31.2821Z" fill="#00B1E2" stroke="#00B1E2"/>
<path d="M1656.22 280.838L1656.22 280.835C1656.4 280.23 1657.04 279.87 1657.66 280.044L1657.66 280.045C1658.27 280.214 1658.61 280.84 1658.43 281.445L1658.43 281.448C1658.26 282.053 1657.62 282.413 1657 282.238L1657 282.238C1656.39 282.069 1656.04 281.442 1656.22 280.838Z" fill="#00B1E2" stroke="#00B1E2"/>
<path d="M1753.08 72.1795C1753.43 71.0089 1754.66 70.32 1755.85 70.6496C1757.03 70.9776 1757.69 72.1925 1757.35 73.3605C1757.01 74.531 1755.77 75.22 1754.58 74.8904C1753.41 74.5624 1752.74 73.3475 1753.08 72.1795Z" fill="#00B1E2" stroke="#00B1E2"/>
<path d="M1705.94 92.0871L1705.94 92.0857C1706.13 91.435 1706.82 91.0548 1707.47 91.2398L1707.47 91.2402C1708.12 91.4242 1708.49 92.0951 1708.3 92.7339L1708.3 92.7353C1708.1 93.386 1707.42 93.7662 1706.77 93.5812L1706.76 93.5808C1706.11 93.3968 1705.74 92.7259 1705.94 92.0871Z" fill="#00B1E2" stroke="#00B1E2"/>
<path d="M1370.09 54.5955C1370.36 53.7081 1371.29 53.1856 1372.19 53.4359C1373.09 53.684 1373.59 54.6029 1373.33 55.4901C1373.07 56.3775 1372.13 56.9 1371.23 56.6496C1370.34 56.4015 1369.83 55.4826 1370.09 54.5955Z" fill="#00B1E2" stroke="#00B1E2"/>
<path d="M1056.96 10.1399C1057.12 9.6285 1057.66 9.32499 1058.18 9.46883C1058.69 9.60873 1058.99 10.1409 1058.84 10.6558C1058.69 11.1618 1058.15 11.4694 1057.62 11.3258C1057.1 11.1809 1056.82 10.6521 1056.96 10.1399Z" fill="#00B1E2" stroke="#00B1E2"/>
<path d="M1494.41 283.751C1493.43 283.347 1492.98 282.218 1493.39 281.231C1493.8 280.244 1494.93 279.769 1495.91 280.173C1496.89 280.577 1497.35 281.706 1496.93 282.693C1496.52 283.68 1495.39 284.155 1494.41 283.751Z" fill="#00B1E2" stroke="#00B1E2"/>
<path d="M1312.54 107.693C1312.93 106.369 1314.34 105.587 1315.67 105.96C1317 106.333 1317.76 107.713 1317.37 109.033C1316.98 110.358 1315.58 111.139 1314.24 110.766C1312.91 110.393 1312.15 109.013 1312.54 107.693Z" fill="#00B1E2" stroke="#00B1E2"/>
<path d="M1043.28 189.824C1043.51 189.037 1044.34 188.575 1045.13 188.798C1045.92 189.021 1046.37 189.833 1046.14 190.612C1045.9 191.399 1045.08 191.861 1044.28 191.638C1043.49 191.415 1043.04 190.603 1043.28 189.824Z" fill="#00B1E2" stroke="#00B1E2"/>
<path d="M1363.09 184.992C1363.51 183.579 1365 182.752 1366.42 183.15C1367.84 183.547 1368.65 185.011 1368.23 186.42C1367.81 187.832 1366.32 188.66 1364.9 188.262C1363.48 187.864 1362.67 186.4 1363.09 184.992Z" fill="#00B1E2" stroke="#00B1E2"/>
<path d="M1675.14 177.336C1675.56 175.905 1677.08 175.062 1678.52 175.466C1679.96 175.869 1680.78 177.356 1680.36 178.782C1679.93 180.213 1678.42 181.056 1676.98 180.652C1675.54 180.249 1674.72 178.762 1675.14 177.336Z" fill="#00B1E2" stroke="#00B1E2"/>
<path d="M902.52 176.864L902.52 176.863C902.764 176.033 903.644 175.544 904.48 175.778L904.482 175.779C905.317 176.01 905.789 176.873 905.545 177.695L905.545 177.696C905.302 178.526 904.421 179.015 903.585 178.781L903.584 178.78C902.749 178.548 902.277 177.686 902.52 176.864Z" fill="#00B1E2" stroke="#00B1E2"/>
<path d="M1138.38 71.5647L1138.38 71.5632C1138.55 70.989 1139.16 70.6529 1139.73 70.8157L1139.73 70.8161C1140.31 70.978 1140.63 71.569 1140.46 72.131C1140.29 72.7038 1139.69 73.0421 1139.11 72.8799L1139.11 72.8795C1138.53 72.7176 1138.21 72.1265 1138.38 71.5647Z" fill="#00B1E2" stroke="#00B1E2"/>
<path d="M944.526 283.047C944.525 283.049 944.524 283.051 944.524 283.054C944.522 283.06 944.52 283.066 944.518 283.072C944.488 283.149 944.403 283.193 944.324 283.175C944.319 283.174 944.314 283.173 944.309 283.171C944.306 283.17 944.302 283.17 944.299 283.169C944.214 283.142 944.166 283.051 944.191 282.967C944.191 282.965 944.192 282.962 944.193 282.96C944.195 282.954 944.197 282.948 944.199 282.942C944.229 282.865 944.313 282.82 944.393 282.838C944.398 282.839 944.403 282.841 944.408 282.842C944.411 282.843 944.414 282.844 944.418 282.845C944.503 282.872 944.551 282.962 944.526 283.047Z" fill="#00B1E2" stroke="#00B1E2"/>
<path d="M1461.83 0.0548185C1462.26 -1.40524 1463.81 -2.26248 1465.28 -1.85014C1466.75 -1.43887 1467.58 0.0767827 1467.15 1.53227C1466.72 2.99233 1465.17 3.84957 1463.7 3.43723C1462.23 3.02596 1461.4 1.51031 1461.83 0.0548185Z" fill="#00B1E2" stroke="#00B1E2"/>
<path d="M1200.47 150.862L1200.48 150.86C1200.84 149.619 1202.15 148.89 1203.4 149.243L1203.4 149.243C1204.65 149.59 1205.36 150.88 1204.99 152.112C1204.62 153.354 1203.31 154.084 1202.07 153.732L1202.06 153.731C1200.81 153.384 1200.11 152.095 1200.47 150.862Z" fill="#00B1E2" stroke="#00B1E2"/>
<path d="M1779.88 277.495C1780.15 276.602 1781.09 276.077 1781.99 276.33C1782.89 276.583 1783.4 277.508 1783.13 278.393C1782.87 279.286 1781.93 279.811 1781.03 279.557C1780.13 279.304 1779.62 278.38 1779.88 277.495Z" fill="#00B1E2" stroke="#00B1E2"/>
<path d="M1495.2 390.855C1495.57 389.596 1496.9 388.857 1498.17 389.211C1499.44 389.563 1500.16 390.867 1499.79 392.123C1499.42 393.382 1498.09 394.122 1496.82 393.768C1495.55 393.415 1494.83 392.111 1495.2 390.855Z" fill="#00B1E2" stroke="#00B1E2"/>
<path d="M998.85 80.9277L998.851 80.927C999.317 79.3494 1000.98 78.4279 1002.56 78.8739L1002.56 78.8741C1004.15 79.3182 1005.05 80.9515 1004.58 82.5187L1004.58 82.5194C1004.11 84.097 1002.45 85.0184 1000.87 84.5724L1000.87 84.5722C999.282 84.128 998.384 82.4948 998.85 80.9277Z" fill="#00B1E2" stroke="#00B1E2"/>
<path d="M1649.92 154.079L1649.92 154.078C1650.27 152.897 1651.52 152.203 1652.71 152.536C1653.9 152.868 1654.57 154.097 1654.23 155.271L1654.23 155.272C1653.88 156.453 1652.63 157.146 1651.44 156.813L1651.44 156.813C1650.25 156.483 1649.58 155.254 1649.92 154.079Z" fill="#00B1E2" stroke="#00B1E2"/>
<path d="M1719.37 169.975C1719.88 168.266 1721.68 167.265 1723.41 167.745C1725.13 168.223 1726.1 169.997 1725.6 171.705C1725.1 173.414 1723.29 174.415 1721.57 173.935C1719.85 173.457 1718.87 171.684 1719.37 169.975Z" fill="#00B1E2" stroke="#00B1E2"/>
<path d="M1361.84 161.518C1362.39 159.677 1364.33 158.597 1366.19 159.115C1368.04 159.633 1369.09 161.543 1368.55 163.385C1368.01 165.226 1366.07 166.306 1364.21 165.788C1362.36 165.27 1361.3 163.36 1361.84 161.518Z" fill="#00B1E2" stroke="#00B1E2"/>
<path d="M1129.55 321.306C1129.93 320.01 1131.3 319.25 1132.6 319.615C1133.91 319.98 1134.65 321.321 1134.26 322.612C1133.88 323.908 1132.52 324.668 1131.21 324.303C1129.91 323.938 1129.17 322.596 1129.55 321.306Z" fill="#00B1E2" stroke="#00B1E2"/>
<path d="M871.033 419.751C871.309 418.819 872.295 418.27 873.236 418.534C874.175 418.798 874.706 419.765 874.431 420.691C874.154 421.624 873.168 422.173 872.227 421.908C871.288 421.645 870.758 420.678 871.033 419.751Z" fill="#00B1E2" stroke="#00B1E2"/>
<path d="M1079.89 109.433L1079.89 109.433C1080.8 109.687 1081.32 110.625 1081.05 111.53C1080.78 112.436 1079.83 112.967 1078.91 112.711C1078 112.455 1077.49 111.517 1077.75 110.621L1077.78 110.518C1078.09 109.671 1079.01 109.186 1079.89 109.433Z" fill="#00B1E2" stroke="#00B1E2"/>
<path d="M1120.4 303.823C1120.81 302.409 1122.31 301.577 1123.73 301.975C1125.15 302.372 1125.96 303.841 1125.55 305.249C1125.13 306.662 1123.63 307.494 1122.21 307.096C1120.79 306.699 1119.98 305.23 1120.4 303.823Z" fill="#00B1E2" stroke="#00B1E2"/>
<path d="M1244.55 20.4406C1244.92 19.1736 1246.26 18.4274 1247.54 18.7845C1248.81 19.141 1249.54 20.4546 1249.16 21.7152C1248.79 22.9821 1247.45 23.7284 1246.17 23.3713C1244.9 23.0149 1244.18 21.7013 1244.55 20.4406Z" fill="#00B1E2" stroke="#00B1E2"/>
</g>
</svg>
