<svg width="1920" height="830" viewBox="0 0 1920 830" fill="none" xmlns="http://www.w3.org/2000/svg">
<g opacity="0.05">
<path d="M1429.76 577.665C1430.56 574.959 1433.41 573.381 1436.14 574.141C1438.85 574.899 1440.4 577.705 1439.6 580.408C1438.8 583.114 1435.95 584.692 1433.23 583.932C1430.51 583.174 1428.97 580.368 1429.76 577.665Z" fill="white" stroke="white"/>
<path d="M1021.97 695.85C1023.25 691.519 1027.81 688.988 1032.17 690.204C1036.51 691.419 1039 695.91 1037.72 700.237C1036.44 704.568 1031.88 707.099 1027.53 705.883C1023.18 704.668 1020.7 700.176 1021.97 695.85Z" fill="white" stroke="white"/>
<path d="M1197.66 520.092C1198.06 518.703 1199.53 517.888 1200.93 518.278C1202.33 518.667 1203.12 520.108 1202.72 521.495C1202.31 522.883 1200.84 523.699 1199.44 523.308C1198.04 522.919 1197.25 521.478 1197.66 520.092Z" fill="white" stroke="white"/>
<path d="M1119.04 687.026C1119.9 684.123 1122.96 682.424 1125.87 683.241C1128.79 684.058 1130.45 687.069 1129.6 689.966C1128.74 692.869 1125.68 694.568 1122.76 693.751C1119.84 692.934 1118.18 689.923 1119.04 687.026Z" fill="white" stroke="white"/>
<path d="M1413.6 645.5C1414.78 641.492 1419.01 639.148 1423.04 640.274C1427.06 641.399 1429.36 645.56 1428.18 649.564C1427 653.572 1422.77 655.916 1418.74 654.79C1414.71 653.666 1412.41 649.504 1413.6 645.5Z" fill="white" stroke="white"/>
<path d="M1052.62 381.068C1053.31 378.74 1055.77 377.375 1058.11 378.03C1060.45 378.683 1061.78 381.1 1061.1 383.423C1060.41 385.751 1057.95 387.116 1055.61 386.461C1053.27 385.808 1051.94 383.391 1052.62 381.068Z" fill="white" stroke="white"/>
<path d="M1391.56 137.745C1386.3 137.742 1382.08 133.417 1382.15 128.08C1382.22 122.743 1386.55 118.424 1391.81 118.427C1397.08 118.431 1401.29 122.756 1401.22 128.092C1401.15 133.429 1396.82 137.748 1391.56 137.745Z" fill="white" stroke="white"/>
<path d="M1571.03 10.5644C1566.05 9.08814 1563.26 3.81334 1564.79 -1.21691C1566.32 -6.24717 1571.59 -9.12874 1576.57 -7.65248C1581.55 -6.17622 1584.34 -0.901364 1582.81 4.12888C1581.28 9.15913 1576.01 12.0407 1571.03 10.5644Z" fill="white" stroke="white"/>
<path d="M1542.15 666.287C1542.95 663.571 1545.81 661.983 1548.55 662.748C1551.27 663.511 1552.83 666.329 1552.03 669.041C1551.22 671.756 1548.36 673.344 1545.63 672.58C1542.9 671.816 1541.35 668.998 1542.15 666.287Z" fill="white" stroke="white"/>
<path d="M1165.28 517.637C1166.7 512.843 1171.75 510.038 1176.57 511.388C1181.38 512.737 1184.13 517.713 1182.72 522.501C1181.3 527.295 1176.24 530.1 1171.43 528.75C1166.61 527.401 1163.86 522.425 1165.28 517.637Z" fill="white" stroke="white"/>
<path d="M1018.17 803.695L1018.17 803.694C1019.68 798.565 1025.09 795.566 1030.25 797.01L1030.25 797.01C1035.4 798.446 1038.34 803.77 1036.83 808.898L1036.83 808.898C1035.32 814.028 1029.91 817.027 1024.75 815.583C1019.6 814.14 1016.66 808.822 1018.17 803.695Z" fill="white" stroke="white"/>
<path d="M1293.89 142.915C1287.93 142.093 1283.82 136.541 1284.71 130.512C1285.6 124.484 1291.16 120.265 1297.12 121.088C1303.07 121.91 1307.18 127.462 1306.29 133.49C1305.4 139.519 1299.85 143.738 1293.89 142.915Z" fill="white" stroke="white"/>
<path d="M1741.27 820.691C1738.58 819.938 1735.77 821.502 1734.98 824.172C1734.19 826.842 1735.72 829.606 1738.4 830.361L1741.27 820.691ZM1741.27 820.691C1743.96 821.445 1745.49 824.21 1744.7 826.88C1743.91 829.555 1741.09 831.114 1738.4 830.361L1741.27 820.691Z" fill="white" stroke="white"/>
<path d="M1658.37 464.084L1658.37 464.083C1659.5 460.246 1663.54 458.004 1667.4 459.086L1667.4 459.087C1671.26 460.161 1673.46 464.142 1672.32 467.977L1672.32 467.978C1671.19 471.815 1667.15 474.057 1663.29 472.975L1663.28 472.974C1659.43 471.9 1657.23 467.919 1658.37 464.084Z" fill="white" stroke="white"/>
<path d="M1590.65 386.679C1588.41 380.859 1591.36 374.267 1597.25 371.962C1603.14 369.656 1609.73 372.515 1611.97 378.334C1614.21 384.154 1611.26 390.746 1605.37 393.052C1599.48 395.358 1592.89 392.499 1590.65 386.679Z" fill="white" stroke="white"/>
<path d="M1055.46 577.572C1053.6 574.208 1054.86 569.943 1058.26 568.049C1061.67 566.156 1065.93 567.354 1067.79 570.719C1069.64 574.083 1068.39 578.348 1064.98 580.241C1061.58 582.135 1057.31 580.936 1055.46 577.572Z" fill="white" stroke="white"/>
<path d="M1549.54 259.05L1549.54 259.049C1550.52 255.706 1554.05 253.752 1557.41 254.694L1557.41 254.694C1560.77 255.629 1562.69 259.099 1561.7 262.441C1560.71 265.787 1557.19 267.738 1553.82 266.796L1553.82 266.796C1550.46 265.862 1548.55 262.392 1549.54 259.05Z" fill="white" stroke="white"/>
<path d="M1354.75 29.4207C1356.1 24.8628 1360.9 22.1988 1365.48 23.4797C1370.06 24.7594 1372.67 29.4895 1371.33 34.0429C1369.98 38.6008 1365.18 41.265 1360.6 39.9841C1356.02 38.7044 1353.4 33.9741 1354.75 29.4207Z" fill="white" stroke="white"/>
<path d="M905.243 661.291C906.278 657.777 909.987 655.721 913.522 656.707C917.052 657.691 919.066 661.343 918.032 664.854C916.997 668.368 913.287 670.423 909.752 669.438C906.223 668.453 904.208 664.802 905.243 661.291Z" fill="white" stroke="white"/>
<path d="M1512.73 424.273C1514.05 419.797 1518.76 417.186 1523.26 418.438C1527.76 419.695 1530.32 424.336 1529 428.807C1527.68 433.283 1522.97 435.894 1518.47 434.642C1513.97 433.385 1511.41 428.744 1512.73 424.273Z" fill="white" stroke="white"/>
<path d="M1388.37 481.947C1390.28 475.466 1397.11 471.68 1403.62 473.499C1410.13 475.318 1413.85 482.045 1411.94 488.521C1410.02 495.002 1403.19 498.788 1396.68 496.968C1390.17 495.15 1386.46 488.423 1388.37 481.947Z" fill="white" stroke="white"/>
<path d="M1445.98 723.186C1446.52 721.354 1448.46 720.276 1450.31 720.789C1452.16 721.302 1453.21 723.208 1452.67 725.046C1452.13 726.878 1450.19 727.956 1448.34 727.443C1446.49 726.93 1445.44 725.024 1445.98 723.186Z" fill="white" stroke="white"/>
<path d="M1544.34 343.126C1545.68 338.568 1550.49 335.904 1555.07 337.184C1559.65 338.464 1562.26 343.194 1560.92 347.748C1559.57 352.306 1554.77 354.97 1550.18 353.689C1545.61 352.409 1542.99 347.679 1544.34 343.126Z" fill="white" stroke="white"/>
<path d="M1261.91 650.154C1258.77 647.363 1258.52 642.524 1261.35 639.346C1264.17 636.167 1269.01 635.852 1272.15 638.642C1275.29 641.433 1275.55 646.272 1272.72 649.45C1269.89 652.629 1265.05 652.944 1261.91 650.154Z" fill="white" stroke="white"/>
<path d="M1371.36 182.131C1372.32 178.905 1375.71 177.018 1378.95 177.926C1382.19 178.834 1384.04 182.174 1383.09 185.394C1382.14 188.62 1378.74 190.506 1375.5 189.598C1372.26 188.691 1370.41 185.351 1371.36 182.131Z" fill="white" stroke="white"/>
<path d="M1457.67 211.267L1457.67 211.266C1458.91 207.065 1463.34 204.607 1467.56 205.791L1467.56 205.791C1471.78 206.967 1474.19 211.328 1472.95 215.527L1472.95 215.528C1471.71 219.729 1467.28 222.187 1463.06 221.003L1463.06 221.003C1458.84 219.826 1456.43 215.465 1457.67 211.267Z" fill="white" stroke="white"/>
<path d="M1013.49 573.665L1013.49 573.665C1014.73 569.454 1019.17 566.994 1023.39 568.178L1023.39 568.178C1027.62 569.36 1030.03 573.728 1028.79 577.926C1027.55 582.131 1023.11 584.597 1018.88 583.413L1018.88 583.413C1014.66 582.232 1012.24 577.863 1013.49 573.665Z" fill="white" stroke="white"/>
<path d="M1251.81 451.138C1252.85 447.606 1256.57 445.54 1260.12 446.536C1263.67 447.53 1265.7 451.194 1264.65 454.721C1263.61 458.254 1259.89 460.32 1256.33 459.324C1252.78 458.33 1250.76 454.666 1251.81 451.138Z" fill="white" stroke="white"/>
<path d="M1420.01 210.238L1420.01 210.238C1421.19 206.23 1425.42 203.886 1429.44 205.013C1433.46 206.14 1435.76 210.301 1434.58 214.297C1433.39 218.299 1429.17 220.649 1425.15 219.521L1425.15 219.521C1421.12 218.396 1418.82 214.235 1420.01 210.238Z" fill="white" stroke="white"/>
<path d="M884.043 782.406C881.023 778.103 882.1 772.125 886.454 769.055C890.808 765.984 896.785 766.987 899.806 771.289C902.826 775.592 901.749 781.57 897.395 784.641C893.041 787.711 887.064 786.709 884.043 782.406Z" fill="white" stroke="white"/>
<path d="M1609.61 106.447C1611.22 100.985 1616.97 97.7946 1622.46 99.3271C1627.95 100.858 1631.08 106.526 1629.47 111.984C1627.86 117.446 1622.1 120.636 1616.61 119.103C1611.13 117.572 1608 111.905 1609.61 106.447Z" fill="white" stroke="white"/>
<path d="M1448.65 60.4848C1449.76 56.7192 1453.72 54.5205 1457.51 55.5788C1461.29 56.6358 1463.45 60.539 1462.34 64.3006C1461.22 68.0663 1457.26 70.265 1453.47 69.2068C1449.69 68.1498 1447.54 64.2464 1448.65 60.4848Z" fill="white" stroke="white"/>
<path d="M975.45 403.671C969.544 400.773 967.157 393.586 970.117 387.619C973.076 381.653 980.263 379.163 986.169 382.061C992.075 384.959 994.462 392.146 991.502 398.113C988.543 404.079 981.356 406.569 975.45 403.671Z" fill="white" stroke="white"/>
<path d="M1333.16 583.878C1334.03 580.936 1337.13 579.217 1340.09 580.04C1343.05 580.861 1344.73 583.918 1343.87 586.855C1343 589.797 1339.9 591.515 1336.94 590.693C1333.99 589.872 1332.3 586.815 1333.16 583.878Z" fill="white" stroke="white"/>
<path d="M1477.82 146.504C1478.89 142.868 1482.73 140.742 1486.38 141.762C1490.03 142.78 1492.12 146.554 1491.05 150.186C1489.98 153.821 1486.14 155.947 1482.49 154.928C1478.84 153.909 1476.75 150.136 1477.82 146.504Z" fill="white" stroke="white"/>
<path d="M1292.23 632.032C1292.89 629.802 1295.24 628.503 1297.48 629.126C1299.72 629.754 1300.99 632.061 1300.34 634.287C1299.68 636.517 1297.33 637.816 1295.09 637.194C1292.85 636.566 1291.58 634.258 1292.23 632.032Z" fill="white" stroke="white"/>
<path d="M1534.1 541.208C1534.99 538.179 1538.19 536.412 1541.23 537.263C1544.28 538.111 1546.01 541.253 1545.12 544.279C1544.22 547.308 1541.03 549.075 1537.98 548.225C1534.94 547.376 1533.21 544.235 1534.1 541.208Z" fill="white" stroke="white"/>
<path d="M1605.78 1.163C1600.21 0.520569 1596.27 -4.56458 1596.98 -10.1975C1597.69 -15.8304 1602.77 -19.8736 1608.34 -19.2312C1613.9 -18.5887 1617.85 -13.5035 1617.14 -7.87054C1616.43 -2.23763 1611.35 1.80543 1605.78 1.163Z" fill="white" stroke="white"/>
<path d="M1394.39 344.363C1388.11 342.293 1384.75 335.472 1386.89 329.129C1389.03 322.786 1395.85 319.321 1402.13 321.392C1408.4 323.462 1411.76 330.283 1409.62 336.626C1407.49 342.969 1400.66 346.434 1394.39 344.363Z" fill="white" stroke="white"/>
<path d="M1259.1 251.798C1255.06 249.963 1253.3 245.163 1255.18 241.08C1257.06 236.996 1261.86 235.172 1265.9 237.008C1269.94 238.844 1271.69 243.643 1269.82 247.726C1267.94 251.81 1263.14 253.634 1259.1 251.798Z" fill="white" stroke="white"/>
<path d="M1465.42 556.864C1463.8 551.782 1466.64 546.291 1471.79 544.608C1476.94 542.925 1482.43 545.693 1484.05 550.776C1485.68 555.859 1482.83 561.349 1477.68 563.032C1472.53 564.715 1467.05 561.947 1465.42 556.864Z" fill="white" stroke="white"/>
<path d="M1395.87 253.107L1395.88 253.106C1397.4 247.927 1402.86 244.906 1408.06 246.361L1408.06 246.361C1413.26 247.813 1416.23 253.191 1414.7 258.359L1414.7 258.36C1413.17 263.539 1407.71 266.56 1402.51 265.105L1402.51 265.105C1397.31 263.652 1394.34 258.276 1395.87 253.107Z" fill="white" stroke="white"/>
<path d="M1397.41 609.261C1399.06 603.684 1404.93 600.426 1410.54 601.994C1416.14 603.561 1419.33 609.344 1417.69 614.915C1416.04 620.492 1410.17 623.75 1404.56 622.182C1398.96 620.615 1395.77 614.832 1397.41 609.261Z" fill="white" stroke="white"/>
<path d="M1230.29 329.346C1226.72 328.1 1224.86 324.161 1226.15 320.549C1227.43 316.938 1231.37 315.019 1234.94 316.266C1238.52 317.512 1240.37 321.451 1239.09 325.063C1237.81 328.674 1233.87 330.593 1230.29 329.346Z" fill="white" stroke="white"/>
<path d="M1219.43 639.536C1220.71 635.189 1225.29 632.652 1229.66 633.871C1234.02 635.089 1236.51 639.601 1235.23 643.944C1233.95 648.29 1229.37 650.828 1225 649.608C1220.63 648.39 1218.15 643.879 1219.43 639.536Z" fill="white" stroke="white"/>
<path d="M1493.67 165.47L1493.67 165.47C1494.48 162.722 1497.37 161.112 1500.14 161.889L1500.14 161.889C1502.9 162.659 1504.48 165.508 1503.66 168.252L1503.66 168.253C1502.85 171.001 1499.96 172.611 1497.19 171.833L1497.19 171.833C1494.43 171.063 1492.86 168.214 1493.67 165.47Z" fill="white" stroke="white"/>
<path d="M1562.29 7.34717C1559.2 6.48572 1555.95 8.281 1555.04 11.3598L1562.29 7.34717ZM1562.29 7.34717C1565.38 8.21231 1567.14 11.4058 1566.23 14.4722M1562.29 7.34717L1566.23 14.4722M1566.23 14.4722C1565.33 17.5421 1562.08 19.3461 1558.99 18.4849L1566.23 14.4722ZM1558.99 18.4849C1555.9 17.6199 1554.14 14.4265 1555.04 11.3601L1558.99 18.4849Z" fill="white" stroke="white"/>
<path d="M1670.34 659.096C1671.28 655.911 1674.63 654.052 1677.83 654.948C1681.03 655.844 1682.85 659.14 1681.91 662.319C1680.97 665.504 1677.62 667.364 1674.42 666.467C1671.22 665.571 1669.4 662.276 1670.34 659.096Z" fill="white" stroke="white"/>
<path d="M1537.54 576.859C1530.84 573.63 1528.08 565.523 1531.38 558.753C1534.68 551.984 1542.79 549.112 1549.49 552.341C1556.19 555.571 1558.94 563.678 1555.64 570.447C1552.34 577.217 1544.24 580.089 1537.54 576.859Z" fill="white" stroke="white"/>
<path d="M1315.92 819.565C1321.42 821.104 1327.19 817.91 1328.8 812.433C1330.42 806.954 1327.28 801.267 1321.78 799.735L1315.92 819.565ZM1315.92 819.565C1310.42 818.032 1307.28 812.346 1308.9 806.867L1315.92 819.565ZM1309.38 807.006L1309.38 807.006C1310.91 801.795 1316.4 798.751 1321.64 800.217L1321.64 800.217C1326.88 801.676 1329.86 807.084 1328.32 812.293L1328.32 812.294C1326.79 817.504 1321.3 820.549 1316.06 819.082L1316.06 819.082C1310.83 817.623 1307.84 812.215 1309.38 807.006Z" fill="white" stroke="white"/>
<path d="M1448.02 58.7247C1449.48 53.7567 1454.72 50.8552 1459.71 52.2474C1464.7 53.6381 1467.55 58.7954 1466.08 63.7603C1464.62 68.7282 1459.38 71.6298 1454.39 70.2375C1449.4 68.8468 1446.55 63.6896 1448.02 58.7247Z" fill="white" stroke="white"/>
<path d="M1600.68 667.974C1601.45 665.354 1604.22 663.817 1606.85 664.555C1609.49 665.293 1610.99 668.006 1610.22 670.628C1609.44 673.248 1606.68 674.785 1604.04 674.046C1601.41 673.308 1599.9 670.588 1600.68 667.974Z" fill="white" stroke="white"/>
<path d="M1357.24 62.496C1355.2 56.0492 1358.83 49.1036 1365.36 46.9901C1371.88 44.8766 1378.83 48.4015 1380.87 54.8483C1382.91 61.2951 1379.28 68.2407 1372.75 70.3542C1366.23 72.4677 1359.28 68.9428 1357.24 62.496Z" fill="white" stroke="white"/>
<path d="M1170.68 153.776L1170.68 153.775C1171.67 150.413 1175.22 148.448 1178.59 149.395L1178.59 149.395C1181.97 150.339 1183.89 153.829 1182.9 157.179L1182.9 157.179C1181.91 160.541 1178.36 162.507 1174.99 161.56C1171.62 160.614 1169.69 157.125 1170.68 153.776Z" fill="white" stroke="white"/>
<path d="M1610.01 38.2473C1607.13 33.0202 1609.07 26.3971 1614.36 23.4566C1619.65 20.5161 1626.27 22.3765 1629.15 27.6037C1632.03 32.8308 1630.09 39.4538 1624.8 42.3943C1619.51 45.3349 1612.89 43.4745 1610.01 38.2473Z" fill="white" stroke="white"/>
<path d="M1706.32 58.3957C1701.07 55.022 1699.61 47.9916 1703.04 42.6937C1706.47 37.3958 1713.5 35.8339 1718.74 39.2077C1723.98 42.5814 1725.45 49.6117 1722.02 54.9096C1718.59 60.2075 1711.56 61.7695 1706.32 58.3957Z" fill="white" stroke="white"/>
<path d="M1708.8 -7.45811C1710.34 -12.6402 1715.79 -15.6742 1721.01 -14.2161C1726.22 -12.7589 1729.19 -7.3827 1727.66 -2.19896C1726.12 2.9833 1720.66 6.01748 1715.45 4.55932C1710.25 3.10003 1707.27 -2.27486 1708.8 -7.45811Z" fill="white" stroke="white"/>
<path d="M1782.49 714.282C1776.91 712.912 1773.55 707.232 1774.98 701.595C1776.41 695.958 1782.09 692.498 1787.67 693.867C1793.24 695.236 1796.61 700.916 1795.18 706.554C1793.75 712.191 1788.07 715.651 1782.49 714.282Z" fill="white" stroke="white"/>
<path d="M1044.15 223.807C1040.13 218.374 1041.32 210.659 1046.82 206.576C1052.31 202.493 1060.03 203.59 1064.05 209.023C1068.07 214.456 1066.87 222.171 1061.38 226.254C1055.88 230.337 1048.17 229.24 1044.15 223.807Z" fill="white" stroke="white"/>
<path d="M1777.49 66.3468C1773.62 64.5436 1771.98 59.9085 1773.82 55.9949C1775.66 52.0813 1780.3 50.3685 1784.17 52.1717C1788.05 53.9749 1789.69 58.61 1787.85 62.5236C1786 66.4372 1781.37 68.15 1777.49 66.3468Z" fill="white" stroke="white"/>
<path d="M1465.3 384.731L1465.3 384.73C1465.84 382.88 1467.8 381.792 1469.66 382.317L1469.66 382.318C1471.52 382.835 1472.58 384.76 1472.03 386.599L1472.03 386.601C1471.49 388.451 1469.53 389.538 1467.67 389.013L1467.67 389.013C1465.81 388.496 1464.75 386.578 1465.3 384.731Z" fill="white" stroke="white"/>
<path d="M1603.02 435.146C1604.01 431.799 1607.53 429.848 1610.9 430.79C1614.26 431.731 1616.17 435.195 1615.19 438.535C1614.2 441.881 1610.68 443.833 1607.31 442.891C1603.95 441.95 1602.04 438.486 1603.02 435.146Z" fill="white" stroke="white"/>
<path d="M878.572 207.915C875.496 202.334 877.573 195.263 883.22 192.124C888.867 188.984 895.936 190.971 899.012 196.552C902.089 202.132 900.012 209.203 894.365 212.343C888.718 215.482 881.649 213.496 878.572 207.915Z" fill="white" stroke="white"/>
<path d="M1436.51 75.7608C1437.3 73.0701 1440.14 71.4967 1442.85 72.2533C1445.55 73.0085 1447.09 75.8006 1446.3 78.4877C1445.51 81.1783 1442.67 82.7517 1439.96 81.9951C1437.26 81.2399 1435.72 78.448 1436.51 75.7608Z" fill="white" stroke="white"/>
<path d="M1573.03 308.701C1570.77 301.19 1575.09 293.195 1582.7 290.85C1590.3 288.506 1598.29 292.706 1600.55 300.217C1602.81 307.727 1598.49 315.723 1590.89 318.067C1583.28 320.412 1575.29 316.212 1573.03 308.701Z" fill="white" stroke="white"/>
<path d="M1699.4 803.377C1701.14 797.471 1707.36 794.028 1713.3 795.684C1719.23 797.34 1722.61 803.467 1720.87 809.369C1719.13 815.275 1712.91 818.719 1706.97 817.062C1701.04 815.407 1697.66 809.28 1699.4 803.377Z" fill="white" stroke="white"/>
<path d="M1479.59 758.806C1474.86 756.987 1472.53 751.633 1474.4 746.849C1476.27 742.064 1481.62 739.658 1486.36 741.477C1491.09 743.295 1493.42 748.649 1491.55 753.434C1489.68 758.219 1484.33 760.625 1479.59 758.806Z" fill="white" stroke="white"/>
<path d="M1325.8 110.217C1320.19 109.473 1316.31 104.277 1317.11 98.6098C1317.92 92.9421 1323.12 88.9527 1328.72 89.6966C1334.32 90.4404 1338.21 95.6363 1337.4 101.304C1336.59 106.972 1331.4 110.961 1325.8 110.217Z" fill="white" stroke="white"/>
<path d="M1623.85 363.392C1618.51 362.59 1614.88 357.565 1615.74 352.165C1616.61 346.766 1621.63 343.04 1626.97 343.842C1632.31 344.644 1635.94 349.67 1635.07 355.069C1634.21 360.469 1629.18 364.194 1623.85 363.392Z" fill="white" stroke="white"/>
<path d="M1438.74 444.113C1440.07 439.612 1444.81 436.988 1449.33 438.247C1453.85 439.512 1456.42 444.179 1455.1 448.675C1453.77 453.176 1449.03 455.801 1444.51 454.541C1439.99 453.276 1437.41 448.609 1438.74 444.113Z" fill="white" stroke="white"/>
<path d="M1547.27 594.573C1542.41 591.81 1540.76 585.595 1543.57 580.691C1546.39 575.788 1552.6 574.051 1557.46 576.813C1562.31 579.576 1563.96 585.792 1561.15 590.695C1558.33 595.599 1552.12 597.336 1547.27 594.573Z" fill="white" stroke="white"/>
<path d="M1531.87 728.294L1531.87 728.293C1532.92 724.739 1536.67 722.665 1540.24 723.664L1540.24 723.664C1543.81 724.659 1545.84 728.35 1544.79 731.894L1544.79 731.895C1543.74 735.449 1540 737.523 1536.43 736.524L1536.43 736.524C1532.86 735.529 1530.82 731.838 1531.87 728.294Z" fill="white" stroke="white"/>
<path d="M1119.27 625.679C1120.7 620.823 1125.82 617.984 1130.7 619.347C1135.58 620.709 1138.36 625.749 1136.93 630.602C1135.5 635.458 1130.38 638.296 1125.5 636.933C1120.62 635.571 1117.84 630.531 1119.27 625.679Z" fill="white" stroke="white"/>
<path d="M1321.05 758.295C1322.3 754.07 1326.75 751.597 1331.01 752.781C1335.26 753.963 1337.68 758.352 1336.43 762.581C1335.19 766.807 1330.73 769.28 1326.48 768.096C1322.23 766.914 1319.81 762.525 1321.05 758.295Z" fill="white" stroke="white"/>
<path d="M1273.71 400.589C1268.03 399.707 1264.19 394.333 1265.13 388.586C1266.08 382.839 1271.45 378.896 1277.14 379.779C1282.82 380.661 1286.66 386.034 1285.71 391.782C1284.76 397.529 1279.39 401.472 1273.71 400.589Z" fill="white" stroke="white"/>
<path d="M1203.95 141.183C1205.48 136.026 1210.91 133.006 1216.1 134.456C1221.27 135.907 1224.23 141.258 1222.72 146.415C1221.19 151.572 1215.76 154.585 1210.57 153.142C1205.39 151.691 1202.43 146.34 1203.95 141.183Z" fill="white" stroke="white"/>
<path d="M1641.3 395.616C1636.08 394.346 1632.92 389.042 1634.25 383.767C1635.58 378.492 1640.88 375.245 1646.1 376.515C1651.32 377.784 1654.47 383.089 1653.15 388.364C1651.82 393.639 1646.52 396.885 1641.3 395.616Z" fill="white" stroke="white"/>
<path d="M1415.54 838.171C1411.7 838.313 1408.52 835.354 1408.43 831.584C1408.33 827.814 1411.35 824.627 1415.19 824.485C1419.03 824.343 1422.21 827.302 1422.3 831.072C1422.4 834.842 1419.38 838.03 1415.54 838.171Z" fill="white" stroke="white"/>
<path d="M1477 701.731C1473.24 700.241 1471.43 695.95 1472.96 692.149C1474.49 688.347 1478.78 686.472 1482.54 687.962C1486.31 689.452 1488.12 693.743 1486.59 697.544C1485.06 701.346 1480.77 703.221 1477 701.731Z" fill="white" stroke="white"/>
<path d="M1776.63 531.972C1778.11 526.954 1783.39 524.026 1788.43 525.434C1793.47 526.841 1796.35 532.043 1794.87 537.057C1793.39 542.075 1788.1 545.003 1783.06 543.595C1778.02 542.188 1775.15 536.986 1776.63 531.972Z" fill="white" stroke="white"/>
<path d="M1134.18 799.351C1129.21 799.633 1125.01 795.879 1124.79 790.987C1124.57 786.095 1128.41 781.886 1133.38 781.604C1138.35 781.322 1142.55 785.076 1142.77 789.969C1142.99 794.861 1139.16 799.069 1134.18 799.351Z" fill="white" stroke="white"/>
<path d="M1125.64 712.216C1126.94 707.836 1131.56 705.274 1135.96 706.506C1140.36 707.738 1142.87 712.287 1141.58 716.663C1140.28 721.044 1135.66 723.606 1131.26 722.373C1126.86 721.142 1124.35 716.592 1125.64 712.216Z" fill="white" stroke="white"/>
<path d="M1840.34 338.332C1841.97 332.836 1847.76 329.621 1853.28 331.166C1858.8 332.711 1861.96 338.416 1860.33 343.907C1858.71 349.403 1852.92 352.618 1847.39 351.073C1841.88 349.528 1838.72 343.823 1840.34 338.332Z" fill="white" stroke="white"/>
<path d="M1876.92 603.527C1874.96 596.879 1878.81 589.83 1885.54 587.791C1892.27 585.752 1899.32 589.501 1901.28 596.149C1903.25 602.798 1899.39 609.847 1892.66 611.885C1885.93 613.924 1878.88 610.175 1876.92 603.527Z" fill="white" stroke="white"/>
<path d="M1493.51 829.218L1493.51 829.217C1494.48 825.915 1497.97 823.986 1501.28 824.912L1501.28 824.912C1504.6 825.835 1506.49 829.268 1505.52 832.561C1504.54 835.866 1501.06 837.793 1497.74 836.867C1494.42 835.937 1492.54 832.511 1493.51 829.218Z" fill="white" stroke="white"/>
<path d="M1412.87 676.211C1414.49 670.741 1420.25 667.549 1425.75 669.086C1431.24 670.622 1434.37 676.297 1432.76 681.763C1431.14 687.234 1425.38 690.426 1419.88 688.889C1414.39 687.352 1411.26 681.678 1412.87 676.211Z" fill="white" stroke="white"/>
<path d="M1420.61 647.539L1434.96 579.032" stroke="white" stroke-linecap="round"/>
<path d="M1124.32 688.282L1029.85 698.256" stroke="white" stroke-width="2.87" stroke-linecap="round"/>
<path d="M1123.59 688.494L1200.92 520.793" stroke="white" stroke-linecap="round"/>
<path d="M1200.19 520.243L1056.87 382.798" stroke="white" stroke-linecap="round"/>
<path d="M1030.22 698.044L1027.12 806.298" stroke="white" stroke-linecap="round"/>
<path d="M1174 520.15L1200.19 520.712" stroke="white" stroke-linecap="round"/>
<path d="M1124.83 688.494L1026.98 806.298" stroke="white" stroke-linecap="round"/>
<path d="M1547.09 667.214L1420.89 647.989" stroke="white" stroke-linecap="round"/>
<path d="M1573.26 1.26739L1637.52 -84.5128" stroke="white" stroke-width="2.87" stroke-linecap="round"/>
<path d="M1124.32 688.315L1061.66 574.566" stroke="white" stroke-linecap="round"/>
<path d="M1128 912.269L1125.05 688.494" stroke="white" stroke-linecap="round"/>
<path d="M1174 519.642L1056.87 382.675" stroke="white" stroke-linecap="round"/>
<path d="M1573.25 1.2674L1641.69 -86.9952" stroke="white" stroke-width="2.87" stroke-linecap="round"/>
<path d="M1295.64 132.368L1391.84 127.913" stroke="white" stroke-width="2.87" stroke-linecap="round"/>
<path d="M1525.36 -93.1217L1573.63 1.13867" stroke="white" stroke-width="2.87" stroke-linecap="round"/>
<path d="M1061.04 574.387L1057.48 382.248" stroke="white" stroke-linecap="round"/>
<path d="M1547.95 667.664L1536.58 909.108" stroke="white" stroke-width="0.63" stroke-linecap="round"/>
<path d="M1740.03 825.519L1537.25 909.108" stroke="white" stroke-linecap="round"/>
<path d="M1174.15 520.069L1061.5 574.387" stroke="white" stroke-width="2.87" stroke-linecap="round"/>
<path d="M1665.34 465.799L1601.31 382.783" stroke="white" stroke-width="2.87" stroke-linecap="round"/>
<path d="M1128.72 911.887L1027.49 806.68" stroke="white" stroke-linecap="round"/>
<path d="M1363.48 31.7317L1295.2 132.108" stroke="white" stroke-linecap="round"/>
<path d="M1392.07 128.172L1377 183.769" stroke="white" stroke-linecap="round"/>
<path d="M1547.27 667.664L1449.13 724.114" stroke="white" stroke-linecap="round"/>
<path d="M1391.84 128.441L1465.31 213.128" stroke="white" stroke-linecap="round"/>
<path d="M1665.34 465.474L1520.86 427.093" stroke="white" stroke-linecap="round"/>
<path d="M1555.61 260.817L1601.31 382.484" stroke="white" stroke-linecap="round"/>
<path d="M1267.14 644.27L1174 520.393" stroke="white" stroke-linecap="round"/>
<path d="M980.893 393.101L1056.87 382.106" stroke="white" stroke-linecap="round"/>
<path d="M1537.44 908.891L1449.32 724.331" stroke="white" stroke-linecap="round"/>
<path d="M1712.33 -22.7676L1602.17 -19.118" stroke="white" stroke-width="2.87" stroke-linecap="round"/>
<path d="M1061.96 574.387L911.341 663.075" stroke="white" stroke-linecap="round"/>
<path d="M1520.72 426.544L1601.45 382.559" stroke="white" stroke-width="2.87" stroke-linecap="round"/>
<path d="M1295.64 132.435L1377.23 183.442" stroke="white" stroke-linecap="round"/>
<path d="M1552.63 345.63L1601.31 382.365" stroke="white" stroke-width="2.87" stroke-linecap="round"/>
<path d="M1556.29 260.743L1520.18 426.545" stroke="white" stroke-linecap="round"/>
<path d="M1027.67 806.298L983.165 847.882" stroke="white" stroke-linecap="round"/>
<path d="M891.982 777.537L1027.49 805.797" stroke="white" stroke-linecap="round"/>
<path d="M1552.33 345.437L1555.91 260.743" stroke="white" stroke-width="2.87" stroke-linecap="round"/>
<path d="M1021.14 575.909L1061.66 574.276" stroke="white" stroke-width="2.87" stroke-linecap="round"/>
<path d="M1521.03 426.545L1399.98 485.234" stroke="white" stroke-width="2.87" stroke-linecap="round"/>
<path d="M1363.45 31.7318L1376.82 183.769" stroke="white" stroke-linecap="round"/>
<path d="M1552.98 345.437L1520.51 426.545" stroke="white" stroke-width="2.87" stroke-linecap="round"/>
<path d="M1021.49 575.799L911.298 663.076" stroke="white" stroke-linecap="round"/>
<path d="M1665.61 466.023L1539.34 542.737" stroke="white" stroke-width="1.14" stroke-linecap="round"/>
<path d="M1296.12 132.108L1262.05 244.435" stroke="white" stroke-linecap="round"/>
<path d="M980.893 393.14L1061.66 574.205" stroke="white" stroke-linecap="round"/>
<path d="M1128.72 911.691L983.337 848.46" stroke="white" stroke-linecap="round"/>
<path d="M1363.04 32.0906L1455.49 62.0339" stroke="white" stroke-linecap="round"/>
<path d="M983.337 847.757L911.642 663.201" stroke="white" stroke-linecap="round"/>
<path d="M891.524 777.036L912.1 663.075" stroke="white" stroke-width="2.87" stroke-linecap="round"/>
<path d="M1258.23 453.451L1400.15 484.706" stroke="white" stroke-linecap="round"/>
<path d="M1465.31 213.055L1377.23 184.111" stroke="white" stroke-width="2.87" stroke-linecap="round"/>
<path d="M1521.09 426.544L1539.38 542.737" stroke="white" stroke-linecap="round"/>
<path d="M1377.23 183.97L1427.3 212.069" stroke="white" stroke-width="2.87" stroke-linecap="round"/>
<path d="M1400.59 485.234L1338.07 585.368" stroke="white" stroke-width="2.87" stroke-linecap="round"/>
<path d="M1465.31 213.279L1427.3 212.387" stroke="white" stroke-width="2.87" stroke-linecap="round"/>
<path d="M1266.9 644.593L1338.75 585.368" stroke="white" stroke-width="2.87" stroke-linecap="round"/>
<path d="M981.087 392.959L1020.95 575.798" stroke="white" stroke-linecap="round"/>
<path d="M1267.11 644.593L1296.31 633.16" stroke="white" stroke-width="2.87" stroke-linecap="round"/>
<path d="M1400.15 485.523L1474.74 553.507" stroke="white" stroke-linecap="round"/>
<path d="M1377.18 183.769L1484.48 148.347" stroke="white" stroke-width="2.87" stroke-linecap="round"/>
<path d="M1465.03 213.397L1484.72 148.347" stroke="white" stroke-width="2.87" stroke-linecap="round"/>
<path d="M1400.53 485.234L1407.17 612.088" stroke="white" stroke-linecap="round"/>
<path d="M1449.32 724.047L1407.55 612.155" stroke="white" stroke-linecap="round"/>
<path d="M1377.23 183.819L1405.28 255.68" stroke="white" stroke-width="2.87" stroke-linecap="round"/>
<path d="M1258.23 453.17L1338.51 585.12" stroke="white" stroke-linecap="round"/>
<path d="M1465.47 213.397L1405.12 255.73" stroke="white" stroke-width="2.87" stroke-linecap="round"/>
<path d="M891.981 777.398L983.337 847.521" stroke="white" stroke-width="2.87" stroke-linecap="round"/>
<path d="M1267.14 644.463L1227.33 641.866" stroke="white" stroke-width="2.87" stroke-linecap="round"/>
<path d="M1258.45 452.923L1296.06 633.16" stroke="white" stroke-linecap="round"/>
<path d="M1449.63 724.114L1318.54 809.643" stroke="white" stroke-linecap="round"/>
<path d="M1484.71 148.348L1427.02 212.27" stroke="white" stroke-width="2.87" stroke-linecap="round"/>
<path d="M1484.44 148.313L1455.49 62.4263" stroke="white" stroke-width="2.87" stroke-linecap="round"/>
<path d="M1258.04 452.923L1232.85 322.852" stroke="white" stroke-linecap="round"/>
<path d="M1607.5 -8.92063L1619.23 109.22" stroke="white" stroke-width="2.87" stroke-linecap="round"/>
<path d="M1427.49 212.27L1405.09 255.73" stroke="white" stroke-width="2.87" stroke-linecap="round"/>
<path d="M1296.08 633.16L1338.71 585.368" stroke="white" stroke-width="2.87" stroke-linecap="round"/>
<path d="M1498.83 166.861L1427.14 212.27" stroke="white" stroke-width="2.87" stroke-linecap="round"/>
<path d="M1498.67 166.775L1455.49 62.4789" stroke="white" stroke-width="2.87" stroke-linecap="round"/>
<path d="M1338.51 585.64L1407.55 611.816" stroke="white" stroke-width="2.87" stroke-linecap="round"/>
<path d="M1474.74 553.896L1539.61 542.636" stroke="white" stroke-width="2.87" stroke-linecap="round"/>
<path d="M1397.87 332.788L1405.57 255.73" stroke="white" stroke-width="2.87" stroke-linecap="round"/>
<path d="M1338.68 585.368L1227.16 641.735" stroke="white" stroke-width="2.87" stroke-linecap="round"/>
<path d="M1296.28 633.305L1407.55 611.943" stroke="white" stroke-width="2.87" stroke-linecap="round"/>
<path d="M1262.53 244.907L1405.28 255.259" stroke="white" stroke-linecap="round"/>
<path d="M1484.44 148.397L1498.67 166.811" stroke="white" stroke-width="2.87" stroke-linecap="round"/>
<path d="M1296.28 633.019L1227.33 641.876" stroke="white" stroke-width="2.87" stroke-linecap="round"/>
<path d="M1262.87 244.436L1232.32 322.852" stroke="white" stroke-width="2.87" stroke-linecap="round"/>
<path d="M1457.06 61.2432L1455.49 62.3929" stroke="white" stroke-width="2.87" stroke-linecap="round"/>
<path d="M1474.98 553.796L1407.31 612.088" stroke="white" stroke-width="2.87" stroke-linecap="round"/>
<path d="M1232.53 322.852L1405.42 255.73" stroke="white" stroke-linecap="round"/>
<path d="M1607.26 -8.92071L1560.58 12.9162" stroke="white" stroke-width="2.87" stroke-linecap="round"/>
<path d="M1455.49 62.1196L1369.09 58.7919" stroke="white" stroke-width="2.87" stroke-linecap="round"/>
<path d="M1227.33 642.026L1407.55 611.797" stroke="white" stroke-linecap="round"/>
<path d="M1543.62 564.755L1539.64 542.737" stroke="white" stroke-width="2.87" stroke-linecap="round"/>
<path d="M1543.65 564.51L1474.74 554.042" stroke="white" stroke-width="2.87" stroke-linecap="round"/>
<path d="M1605.44 669.125L1539.61 542.916" stroke="white" stroke-linecap="round"/>
<path d="M1543.73 564.755L1407.48 612.088" stroke="white" stroke-linecap="round"/>
<path d="M980.124 392.959L1054.91 216.655" stroke="white" stroke-linecap="round"/>
<path d="M1607.2 -8.91414L1619.57 33.1265" stroke="white" stroke-width="2.87" stroke-linecap="round"/>
<path d="M1262.53 244.112L1176.79 155.797" stroke="white" stroke-linecap="round"/>
<path d="M1560.77 12.916L1456.92 61.2425" stroke="white" stroke-width="2.87" stroke-linecap="round"/>
<path d="M1398.17 333.069L1468.66 385.385" stroke="white" stroke-width="2.87" stroke-linecap="round"/>
<path d="M1054.14 217.381L1262.53 243.709" stroke="white" stroke-width="1.08" stroke-linecap="round"/>
<path d="M1605.44 669.449L1676.12 660.566" stroke="white" stroke-width="2.87" stroke-linecap="round"/>
<path d="M1468.66 385.504L1405.28 255.89" stroke="white" stroke-linecap="round"/>
<path d="M1605.44 669.116L1543.65 564.943" stroke="white" stroke-width="2.87" stroke-linecap="round"/>
<path d="M1619.57 32.9033L1560.64 13.1459" stroke="white" stroke-width="2.87" stroke-linecap="round"/>
<path d="M1054.14 217.371L1232.66 322.136" stroke="white" stroke-width="1.09" stroke-linecap="round"/>
<path d="M1457.05 60.9702L1369.09 58.7913" stroke="white" stroke-width="2.87" stroke-linecap="round"/>
<path d="M1319.31 809.642L1280.61 917.346" stroke="white" stroke-width="2.87" stroke-linecap="round"/>
<path d="M1785.04 703.62L1676.12 661.142" stroke="white" stroke-width="2.87" stroke-linecap="round"/>
<path d="M1318.85 809.746L1350.19 855.492" stroke="white" stroke-width="2.87" stroke-linecap="round"/>
<path d="M1712.16 48.9833L1787.44 -54.5708" stroke="white" stroke-width="2.87" stroke-linecap="round"/>
<path d="M1712.61 48.6492L1619.57 33.4666" stroke="white" stroke-width="2.87" stroke-linecap="round"/>
<path d="M1787.4 -54.5711L1780.51 59.3866" stroke="white" stroke-width="2.87" stroke-linecap="round"/>
<path d="M1712.41 48.983L1718.43 -4.8311" stroke="white" stroke-width="2.87" stroke-linecap="round"/>
<path d="M1053.96 216.655L1176.97 155.473" stroke="white" stroke-width="2.87" stroke-linecap="round"/>
<path d="M1712.61 49.2251L1780.92 59.1448" stroke="white" stroke-width="2.87" stroke-linecap="round"/>
<path d="M1484.62 -22.9348L1560.64 12.6128" stroke="white" stroke-width="2.87" stroke-linecap="round"/>
<path d="M1718.22 -4.59311L1780.92 59.1492" stroke="white" stroke-width="2.87" stroke-linecap="round"/>
<path d="M1484.98 -23.238L1456.69 61.2428" stroke="white" stroke-width="2.87" stroke-linecap="round"/>
<path d="M1710.02 806.369L1676.24 660.712" stroke="white" stroke-linecap="round"/>
<path d="M1457.12 61.2423L1441.34 77.1267" stroke="white" stroke-width="2.87" stroke-linecap="round"/>
<path d="M1369.09 58.7915L1441.41 76.8538" stroke="white" stroke-width="2.87" stroke-linecap="round"/>
<path d="M1605.73 669.303L1482.78 750.217" stroke="white" stroke-linecap="round"/>
<path d="M1609.11 436.294L1468.66 386.215" stroke="white" stroke-linecap="round"/>
<path d="M888.807 203.04L1054.14 216.105" stroke="white" stroke-linecap="round"/>
<path d="M1369.26 58.5186L1327.22 100.056" stroke="white" stroke-width="2.87" stroke-linecap="round"/>
<path d="M1709.69 806.369L1785.49 704.049" stroke="white" stroke-width="2.87" stroke-linecap="round"/>
<path d="M1587.13 304.217L1468.36 385.665" stroke="white" stroke-linecap="round"/>
<path d="M1349.77 855.596L1483.49 750.217" stroke="white" stroke-linecap="round"/>
<path d="M1780.59 59.3868L1783.92 -33.8312" stroke="white" stroke-width="2.87" stroke-linecap="round"/>
<path d="M1485.06 -23.2383L1440.97 77.1269" stroke="white" stroke-width="2.87" stroke-linecap="round"/>
<path d="M1468.93 385.665L1446.66 446.395" stroke="white" stroke-width="2.87" stroke-linecap="round"/>
<path d="M1587.08 304.217L1608.86 436.844" stroke="white" stroke-width="2.87" stroke-linecap="round"/>
<path d="M1275.41 390.03L1232.66 322.988" stroke="white" stroke-linecap="round"/>
<path d="M1327.39 100.187L1441.41 76.9963" stroke="white" stroke-width="2.87" stroke-linecap="round"/>
<path d="M1608.77 436.844L1625.94 353.745" stroke="white" stroke-width="2.87" stroke-linecap="round"/>
<path d="M1586.83 304.355L1625.6 353.608" stroke="white" stroke-width="2.87" stroke-linecap="round"/>
<path d="M1213.34 143.799L1176.78 155.473" stroke="white" stroke-width="1.13" stroke-linecap="round"/>
<path d="M1609.75 436.844L1551.81 585.813" stroke="white" stroke-linecap="round"/>
<path d="M1409.86 -128.793L1440.99 77.1271" stroke="white" stroke-linecap="round"/>
<path d="M1275.41 390.709L1468.66 385.122" stroke="white" stroke-linecap="round"/>
<path d="M1410.43 -128.793L1326.4 100.057" stroke="white" stroke-linecap="round"/>
<path d="M1538.37 730.09L1483.04 750.218" stroke="white" stroke-width="2.87" stroke-linecap="round"/>
<path d="M1466.33 976.878L1483.91 750.218" stroke="white" stroke-width="1.38" stroke-linecap="round"/>
<path d="M1552.46 585.445L1446.92 446.763" stroke="white" stroke-linecap="round"/>
<path d="M1644.09 386.202L1608.88 436.844" stroke="white" stroke-linecap="round"/>
<path d="M1213.29 143.799L1441.45 77.1268" stroke="white" stroke-linecap="round"/>
<path d="M1586.83 304.409L1643.87 386.01" stroke="white" stroke-linecap="round"/>
<path d="M1415.07 831.34L1483.42 750.217" stroke="white" stroke-linecap="round"/>
<path d="M1553.01 585.813L1537.79 730.09" stroke="white" stroke-width="2.87" stroke-linecap="round"/>
<path d="M1479.95 694.857L1482.91 750.218" stroke="white" stroke-linecap="round"/>
<path d="M1213.25 143.799L1327.48 100.057" stroke="white" stroke-linecap="round"/>
<path d="M1643.87 386.148L1625.6 353.798" stroke="white" stroke-width="2.87" stroke-linecap="round"/>
<path d="M1275.41 390.831L1446.92 445.729" stroke="white" stroke-linecap="round"/>
<path d="M1128.1 628.951L1328.74 759.64" stroke="white" stroke-linecap="round"/>
<path d="M1785.75 533.927L1625.6 354.336" stroke="white" stroke-width="0.62" stroke-linecap="round"/>
<path d="M1552.94 585.813L1479.31 694.856" stroke="white" stroke-width="2.87" stroke-linecap="round"/>
<path d="M1538.74 730.09L1415.01 831.341" stroke="white" stroke-linecap="round"/>
<path d="M1538.33 729.855L1479.79 695.091" stroke="white" stroke-width="2.87" stroke-linecap="round"/>
<path d="M1467.17 976.805L1415.42 831.413" stroke="white" stroke-linecap="round"/>
<path d="M1415.42 830.999L1328.74 760.785" stroke="white" stroke-width="2.87" stroke-linecap="round"/>
<path d="M1128.62 628.147L1132.98 790.41" stroke="white" stroke-linecap="round"/>
<path d="M1213.43 143.799L1275.31 390.166" stroke="white" stroke-linecap="round"/>
<path d="M1133.36 714.435L1128.36 628.148" stroke="white" stroke-width="2.87" stroke-linecap="round"/>
<path d="M1480.39 694.856L1414.82 831.34" stroke="white" stroke-linecap="round"/>
<path d="M1133.5 790.749L1328.74 760.103" stroke="white" stroke-linecap="round"/>
<path d="M1133.61 715.164L1328.74 759.714" stroke="white" stroke-linecap="round"/>
<path d="M1643.87 386.737L1785.75 533.983" stroke="white" stroke-linecap="round"/>
<path d="M1133.87 714.435L1133.24 790.41" stroke="white" stroke-width="2.87" stroke-linecap="round"/>
<path d="M1133.98 790.41L911.833 928.1" stroke="white" stroke-linecap="round"/>
<path d="M1784.92 534.519L1851.17 341.115" stroke="white" stroke-linecap="round"/>
<path d="M1785.75 534.933L1889.11 599.366" stroke="white" stroke-width="2.87" stroke-linecap="round"/>
<path d="M1888.56 599.78L1850.89 341.115" stroke="white" stroke-linecap="round"/>
<path d="M1499.52 830.64L1415.42 831.585" stroke="white" stroke-linecap="round"/>
<path d="M1499.22 830.885L1480.09 694.857" stroke="white" stroke-linecap="round"/>
<path d="M1499.52 830.683L1422.82 679.189" stroke="white" stroke-linecap="round"/>
<path d="M1632.87 594.91C1633.22 593.723 1634.47 593.024 1635.67 593.358C1636.87 593.69 1637.55 594.925 1637.2 596.109C1636.85 597.296 1635.59 597.995 1634.39 597.661C1633.2 597.328 1632.52 596.094 1632.87 594.91Z" fill="white" stroke="white"/>
<path d="M1399.55 827.606C1399.55 827.606 1399.55 827.602 1399.55 827.597C1399.56 827.592 1399.57 827.587 1399.57 827.586C1399.58 827.585 1399.58 827.586 1399.59 827.588C1399.59 827.588 1399.59 827.589 1399.59 827.591C1399.61 827.597 1399.61 827.613 1399.6 827.627C1399.6 827.631 1399.6 827.635 1399.6 827.638L1399.58 827.626L1399.58 827.624L1399.57 827.62L1399.57 827.62L1399.57 827.619L1399.55 827.606ZM1399.55 827.606C1399.54 827.609 1399.54 827.611 1399.54 827.614C1399.54 827.626 1399.55 827.637 1399.56 827.643C1399.56 827.644 1399.56 827.645 1399.56 827.646C1399.57 827.648 1399.57 827.649 1399.57 827.649C1399.58 827.65 1399.59 827.648 1399.59 827.644C1399.59 827.64 1399.58 827.636 1399.58 827.632C1399.58 827.631 1399.57 827.629 1399.57 827.628C1399.57 827.627 1399.57 827.625 1399.57 827.624C1399.57 827.624 1399.57 827.623 1399.57 827.623C1399.56 827.621 1399.56 827.619 1399.56 827.617C1399.55 827.614 1399.55 827.61 1399.55 827.606Z" fill="white" stroke="white"/>
<path d="M1700.72 249.829C1701.03 248.769 1702.15 248.146 1703.22 248.447C1704.29 248.747 1704.89 249.846 1704.58 250.901C1704.27 251.962 1703.15 252.584 1702.08 252.283C1701.01 251.983 1700.41 250.884 1700.72 249.829Z" fill="white" stroke="white"/>
<path d="M1791.47 637.072C1791.89 635.678 1793.35 634.858 1794.76 635.253C1796.17 635.647 1796.96 637.088 1796.55 638.482C1796.13 639.876 1794.67 640.695 1793.26 640.301C1791.85 639.907 1791.06 638.466 1791.47 637.072Z" fill="white" stroke="white"/>
<path d="M1140.66 721.725C1140.68 721.711 1140.71 721.685 1140.72 721.643C1140.72 721.639 1140.72 721.634 1140.72 721.63C1140.73 721.588 1140.72 721.55 1140.71 721.523C1140.69 721.496 1140.67 721.471 1140.63 721.459C1140.63 721.459 1140.63 721.458 1140.62 721.458C1140.58 721.445 1140.54 721.455 1140.52 721.468C1140.49 721.482 1140.47 721.508 1140.45 721.55L1140.66 721.725ZM1140.66 721.725C1140.63 721.738 1140.59 721.748 1140.55 721.735M1140.66 721.725L1140.55 721.735M1140.55 721.735C1140.55 721.735 1140.55 721.734 1140.54 721.734M1140.55 721.735L1140.54 721.734M1140.54 721.734C1140.51 721.722 1140.48 721.697 1140.46 721.67M1140.54 721.734L1140.46 721.67M1140.46 721.67C1140.45 721.644 1140.44 721.605 1140.45 721.563L1140.46 721.67Z" fill="white" stroke="white"/>
<path d="M987.378 338.915C987.378 338.916 987.378 338.917 987.378 338.919C987.377 338.92 987.377 338.921 987.376 338.923C987.369 338.941 987.357 338.951 987.349 338.956C987.341 338.96 987.328 338.964 987.311 338.961C987.31 338.961 987.309 338.96 987.308 338.96C987.307 338.96 987.305 338.959 987.304 338.959C987.303 338.958 987.302 338.958 987.301 338.957C987.286 338.951 987.275 338.94 987.269 338.928C987.263 338.919 987.259 338.905 987.261 338.888C987.261 338.886 987.261 338.884 987.261 338.882C987.261 338.881 987.262 338.88 987.262 338.878C987.262 338.877 987.262 338.876 987.263 338.875C987.263 338.873 987.264 338.872 987.264 338.871C987.271 338.853 987.283 338.842 987.292 338.838C987.3 338.833 987.316 338.828 987.336 338.834C987.337 338.835 987.339 338.835 987.34 338.835C987.342 338.836 987.343 338.837 987.345 338.837C987.359 338.843 987.368 338.853 987.372 338.861C987.377 338.869 987.382 338.885 987.38 338.905C987.38 338.907 987.38 338.909 987.379 338.911C987.379 338.912 987.379 338.914 987.378 338.915Z" fill="white" stroke="white"/>
<path d="M1731.46 560.96C1731.96 559.269 1733.74 558.28 1735.44 558.753C1737.14 559.231 1738.11 560.982 1737.61 562.666C1737.11 564.357 1735.33 565.346 1733.63 564.873C1731.93 564.402 1730.96 562.645 1731.46 560.96Z" fill="white" stroke="white"/>
<path d="M1846.47 584.797C1846.94 583.196 1848.64 582.255 1850.25 582.707C1851.86 583.157 1852.77 584.818 1852.3 586.413C1851.83 588.015 1850.14 588.956 1848.53 588.504C1846.92 588.054 1846 586.393 1846.47 584.797Z" fill="white" stroke="white"/>
<path d="M1580.25 246.471L1580.25 246.471C1578.36 245.941 1577.28 243.983 1577.83 242.104C1578.39 240.219 1580.38 239.109 1582.28 239.645C1584.17 240.182 1585.25 242.134 1584.69 244.013C1584.14 245.897 1582.15 247.007 1580.25 246.471Z" fill="white" stroke="white"/>
<path d="M1672.6 574.929C1672.7 574.618 1673.02 574.435 1673.34 574.524C1673.65 574.613 1673.82 574.931 1673.73 575.233C1673.64 575.543 1673.31 575.726 1673 575.638C1672.68 575.549 1672.51 575.231 1672.6 574.929Z" fill="white" stroke="white"/>
<path d="M1760.92 80.2294C1761.71 77.5636 1764.52 76.0045 1767.2 76.7531C1769.88 77.5002 1771.41 80.2663 1770.62 82.929C1769.84 85.5948 1767.03 87.1539 1764.34 86.4053C1761.66 85.6582 1760.14 82.8921 1760.92 80.2294Z" fill="white" stroke="white"/>
<path d="M1396.74 358.989C1397.37 356.879 1399.59 355.636 1401.72 356.229C1403.84 356.824 1405.06 359.013 1404.44 361.125C1403.81 363.236 1401.59 364.478 1399.45 363.885C1397.33 363.293 1396.12 361.102 1396.74 358.989Z" fill="white" stroke="white"/>
<path d="M1313.53 473.943L1313.53 473.943C1315.19 474.403 1316.13 476.116 1315.64 477.761C1315.16 479.407 1313.42 480.373 1311.75 479.911C1310.1 479.451 1309.16 477.738 1309.64 476.093C1310.13 474.446 1311.87 473.475 1313.53 473.943Z" fill="white" stroke="white"/>
<path d="M1180.74 313.15C1181.33 311.175 1183.4 310.019 1185.39 310.576C1187.37 311.133 1188.5 313.175 1187.92 315.142C1187.33 317.117 1185.26 318.273 1183.27 317.716C1181.29 317.159 1180.16 315.117 1180.74 313.15Z" fill="white" stroke="white"/>
<path d="M1348.94 363.901L1348.94 363.899C1349.38 362.414 1350.94 361.543 1352.44 361.965C1353.94 362.387 1354.79 363.919 1354.34 365.401L1354.34 365.403C1353.91 366.888 1352.34 367.759 1350.84 367.337L1350.84 367.336C1349.35 366.921 1348.5 365.384 1348.94 363.901Z" fill="white" stroke="white"/>
<path d="M1238.67 250.624L1238.67 250.624L1238.67 250.618C1238.81 250.141 1239.32 249.859 1239.79 249.997L1239.79 249.997L1239.8 249.998C1240.28 250.132 1240.55 250.628 1240.41 251.09L1240.41 251.09L1240.4 251.096C1240.27 251.574 1239.76 251.856 1239.28 251.718L1239.28 251.718L1239.27 251.716C1238.79 251.583 1238.53 251.086 1238.67 250.624Z" fill="white" stroke="white"/>
<path d="M1444.17 119.326C1441.22 118.209 1439.76 114.89 1440.91 111.912C1442.06 108.934 1445.38 107.424 1448.32 108.54C1451.27 109.657 1452.73 112.977 1451.58 115.955C1450.44 118.932 1447.12 120.442 1444.17 119.326Z" fill="white" stroke="white"/>
<path d="M854.319 121.959C855.093 119.334 857.859 117.802 860.502 118.539C863.14 119.275 864.639 121.996 863.866 124.618C863.092 127.244 860.326 128.776 857.683 128.038C855.045 127.303 853.547 124.582 854.319 121.959Z" fill="white" stroke="white"/>
<path d="M1507.5 152.475C1508.09 150.456 1510.23 149.266 1512.27 149.833C1514.3 150.399 1515.46 152.499 1514.87 154.522C1514.27 156.541 1512.14 157.731 1510.1 157.164C1508.07 156.598 1506.91 154.498 1507.5 152.475Z" fill="white" stroke="white"/>
<path d="M1604.86 441.361C1605.05 440.705 1605.75 440.316 1606.42 440.498C1607.08 440.677 1607.45 441.358 1607.26 442.021C1607.07 442.675 1606.37 443.065 1605.7 442.884C1605.04 442.696 1604.67 442.018 1604.86 441.361Z" fill="white" stroke="white"/>
<path d="M1003.39 81.7291C1003.91 79.9813 1005.75 78.9559 1007.51 79.449C1009.26 79.9416 1010.26 81.7511 1009.75 83.4917C1009.23 85.2394 1007.39 86.2648 1005.63 85.7718C1003.87 85.2791 1002.87 83.4698 1003.39 81.7291Z" fill="white" stroke="white"/>
<path d="M1795.07 341.3C1795.75 338.997 1798.18 337.646 1800.5 338.293C1802.82 338.939 1804.14 341.33 1803.46 343.628C1802.78 345.931 1800.35 347.282 1798.03 346.635C1795.72 345.989 1794.4 343.599 1795.07 341.3Z" fill="white" stroke="white"/>
<path d="M1226.36 105.675L1226.36 105.674C1227.16 102.927 1230.07 101.315 1232.83 102.092L1232.83 102.092C1235.59 102.862 1237.17 105.718 1236.36 108.462L1236.36 108.463C1235.55 111.21 1232.64 112.822 1229.88 112.045L1229.88 112.045C1227.12 111.275 1225.54 108.42 1226.36 105.675Z" fill="white" stroke="white"/>
<path d="M1898.03 631.227C1898.54 629.515 1900.35 628.511 1902.07 628.992C1903.79 629.471 1904.77 631.248 1904.27 632.958C1903.77 634.67 1901.96 635.674 1900.23 635.193C1898.51 634.714 1897.53 632.937 1898.03 631.227Z" fill="white" stroke="white"/>
<path d="M1794.7 16.7505C1795.22 14.9831 1797.09 13.947 1798.87 14.4426C1800.65 14.9363 1801.66 16.7717 1801.14 18.5379C1800.62 20.3053 1798.75 21.3415 1796.97 20.8458C1795.19 20.3521 1794.18 18.5167 1794.7 16.7505Z" fill="white" stroke="white"/>
<path d="M1608.95 47.793C1609.67 45.3497 1612.25 43.9169 1614.7 44.6068C1617.16 45.2964 1618.56 47.8292 1617.84 50.2652C1617.11 52.7086 1614.54 54.1414 1612.08 53.4515C1609.62 52.7619 1608.22 50.2291 1608.95 47.793Z" fill="white" stroke="white"/>
<path d="M1833.14 658.63L1833.14 658.629C1833.43 657.633 1834.48 657.053 1835.48 657.335L1835.48 657.336C1836.48 657.617 1837.04 658.645 1836.75 659.627L1836.75 659.628C1836.45 660.624 1835.4 661.204 1834.41 660.921L1834.4 660.921C1833.4 660.64 1832.84 659.612 1833.14 658.63Z" fill="white" stroke="white"/>
<path d="M1001.73 394.261C1002.12 392.948 1003.5 392.174 1004.83 392.546C1006.15 392.92 1006.9 394.277 1006.51 395.588C1006.12 396.906 1004.74 397.675 1003.41 397.303C1002.08 396.931 1001.34 395.574 1001.73 394.261Z" fill="white" stroke="white"/>
<path d="M1258.83 438.326L1258.83 438.325C1259.49 436.063 1261.88 434.731 1264.17 435.371C1266.45 436.01 1267.75 438.356 1267.08 440.623L1267.07 440.624C1266.41 442.892 1264.02 444.218 1261.73 443.578L1261.73 443.578C1259.45 442.945 1258.16 440.594 1258.83 438.326Z" fill="white" stroke="white"/>
<path d="M1557.8 204.716L1557.8 204.715C1558.47 202.422 1560.9 201.079 1563.2 201.723L1563.2 201.723C1565.51 202.364 1566.82 204.749 1566.14 207.032L1566.14 207.033C1565.47 209.326 1563.04 210.669 1560.74 210.025C1558.44 209.382 1557.13 206.998 1557.8 204.716Z" fill="white" stroke="white"/>
<path d="M861.234 504.113C861.44 503.41 862.193 502.99 862.906 503.189C863.614 503.386 864.018 504.122 863.812 504.822C863.605 505.524 862.853 505.945 862.14 505.746C861.432 505.549 861.028 504.812 861.234 504.113Z" fill="white" stroke="white"/>
<path d="M1370.83 607.022C1371.22 605.699 1372.62 604.924 1373.95 605.296C1375.29 605.666 1376.04 607.036 1375.65 608.358C1375.26 609.68 1373.87 610.455 1372.53 610.084C1371.2 609.714 1370.45 608.344 1370.83 607.022Z" fill="white" stroke="white"/>
<path d="M1190.44 204.927L1190.44 204.927L1190.44 204.919C1190.46 204.846 1190.55 204.799 1190.62 204.822L1190.62 204.822L1190.63 204.824C1190.71 204.845 1190.74 204.92 1190.72 204.983L1190.72 204.983L1190.72 204.992C1190.7 205.064 1190.62 205.111 1190.54 205.089L1190.54 205.089L1190.53 205.086C1190.46 205.066 1190.42 204.991 1190.44 204.927Z" fill="white" stroke="white"/>
<path d="M1370.46 286.85L1370.46 286.848C1370.8 285.7 1372.01 285.024 1373.17 285.352L1373.17 285.353C1374.33 285.674 1374.98 286.862 1374.64 288.006L1374.64 288.008C1374.3 289.155 1373.09 289.831 1371.93 289.503L1371.93 289.503C1370.78 289.181 1370.12 287.993 1370.46 286.85Z" fill="white" stroke="white"/>
<path d="M1365.97 428.282L1365.97 428.28C1366.62 426.067 1368.96 424.771 1371.18 425.398L1371.18 425.399C1373.41 426.017 1374.67 428.317 1374.02 430.521L1374.02 430.522C1373.37 432.735 1371.03 434.031 1368.81 433.404L1368.8 433.403C1366.58 432.785 1365.31 430.485 1365.97 428.282Z" fill="white" stroke="white"/>
<path d="M1664.02 450.396C1664.58 448.529 1666.54 447.438 1668.42 447.965C1670.3 448.491 1671.37 450.424 1670.81 452.287C1670.26 454.155 1668.3 455.245 1666.41 454.718C1664.54 454.192 1663.47 452.259 1664.02 450.396Z" fill="white" stroke="white"/>
<path d="M750.382 477.841C750.879 476.16 752.654 475.173 754.348 475.647C756.039 476.12 757.001 477.865 756.505 479.542C756.008 481.223 754.233 482.21 752.539 481.736C750.848 481.263 749.886 479.518 750.382 477.841Z" fill="white" stroke="white"/>
<path d="M939.792 545.827C940.031 545.021 940.882 544.549 941.702 544.773C942.508 544.994 942.969 545.832 942.735 546.641C942.503 547.44 941.648 547.917 940.826 547.693C940.015 547.466 939.56 546.632 939.792 545.827Z" fill="white" stroke="white"/>
<path d="M1659.23 328.185C1659.93 325.817 1662.43 324.425 1664.81 325.091C1667.19 325.756 1668.55 328.218 1667.85 330.581C1667.16 332.949 1664.65 334.341 1662.27 333.675C1659.89 333.01 1658.53 330.548 1659.23 328.185Z" fill="white" stroke="white"/>
<path d="M1291.61 680.113C1292.17 678.189 1294.21 677.057 1296.15 677.599C1298.08 678.14 1299.19 680.143 1298.62 682.062C1298.05 683.986 1296.02 685.118 1294.08 684.577C1292.14 684.036 1291.04 682.032 1291.61 680.113Z" fill="white" stroke="white"/>
<path d="M1806.05 18.8599C1806.58 17.0421 1808.49 15.9799 1810.33 16.4913C1812.15 17.0014 1813.19 18.8819 1812.66 20.6963C1812.12 22.5141 1810.21 23.5765 1808.37 23.0651C1806.55 22.555 1805.51 20.6743 1806.05 18.8599Z" fill="white" stroke="white"/>
<path d="M942.307 446.274C942.627 445.179 943.786 444.535 944.898 444.842C945.999 445.147 946.624 446.284 946.304 447.38C945.983 448.476 944.825 449.12 943.713 448.813C942.611 448.508 941.986 447.371 942.307 446.274Z" fill="white" stroke="white"/>
<path d="M920.951 793.17C921.302 791.987 922.547 791.294 923.738 791.629C924.927 791.964 925.6 793.185 925.251 794.361C924.9 795.543 923.655 796.236 922.464 795.901C921.275 795.567 920.602 794.345 920.951 793.17Z" fill="white" stroke="white"/>
<path d="M1692.94 507.743C1693.5 505.845 1695.5 504.728 1697.42 505.26C1699.33 505.793 1700.42 507.763 1699.86 509.666C1699.3 511.564 1697.3 512.681 1695.38 512.148C1693.47 511.615 1692.38 509.645 1692.94 507.743Z" fill="white" stroke="white"/>
<path d="M1361.19 786.518C1361.79 784.474 1363.95 783.279 1366.01 783.855C1368.06 784.429 1369.23 786.549 1368.63 788.59C1368.02 790.634 1365.87 791.83 1363.81 791.254C1361.75 790.679 1360.59 788.559 1361.19 786.518Z" fill="white" stroke="white"/>
<path d="M1253.12 198.622C1254.05 195.478 1257.36 193.643 1260.52 194.522C1263.68 195.407 1265.47 198.664 1264.55 201.802C1263.62 204.946 1260.31 206.781 1257.15 205.902C1253.99 205.018 1252.2 201.761 1253.12 198.622Z" fill="white" stroke="white"/>
<path d="M1517.09 272.266C1517.56 270.69 1519.23 269.761 1520.82 270.204C1522.4 270.647 1523.31 272.288 1522.84 273.86C1522.38 275.436 1520.71 276.365 1519.12 275.921C1517.53 275.479 1516.63 273.837 1517.09 272.266Z" fill="white" stroke="white"/>
<path d="M1573.22 158.128L1573.22 158.128C1573.7 156.481 1575.45 155.516 1577.1 155.98L1577.1 155.98C1578.76 156.44 1579.7 158.152 1579.21 159.79L1579.21 159.791C1578.73 161.437 1576.99 162.402 1575.33 161.939C1573.68 161.477 1572.74 159.764 1573.22 158.128Z" fill="white" stroke="white"/>
<path d="M1790.74 775.98C1791.36 773.91 1793.54 772.693 1795.63 773.276C1797.71 773.859 1798.9 776.011 1798.29 778.075C1797.67 780.146 1795.49 781.363 1793.4 780.779C1791.32 780.196 1790.13 778.044 1790.74 775.98Z" fill="white" stroke="white"/>
<path d="M1028.84 407.623C1029.57 405.173 1032.15 403.738 1034.61 404.426C1037.07 405.114 1038.48 407.653 1037.75 410.097C1037.03 412.546 1034.45 413.982 1031.99 413.293C1029.52 412.606 1028.12 410.066 1028.84 407.623Z" fill="white" stroke="white"/>
<path d="M776.027 40.8509C776.056 40.7516 776.168 40.6875 776.271 40.7161C776.374 40.7447 776.426 40.8492 776.399 40.9393C776.37 41.0386 776.258 41.1027 776.155 41.0741C776.052 41.0455 776 40.941 776.027 40.8509Z" fill="white" stroke="white"/>
<path d="M1618.08 164.537C1618.63 162.669 1620.6 161.579 1622.48 162.106C1624.36 162.632 1625.42 164.565 1624.87 166.428C1624.31 168.295 1622.35 169.386 1620.47 168.859C1618.59 168.333 1617.53 166.4 1618.08 164.537Z" fill="white" stroke="white"/>
<path d="M727.194 775.33L727.194 775.329C727.559 774.086 728.876 773.357 730.124 773.707L730.125 773.707C731.375 774.054 732.084 775.347 731.719 776.58L731.718 776.581C731.354 777.823 730.037 778.553 728.789 778.203L728.787 778.203C727.537 777.856 726.829 776.563 727.194 775.33Z" fill="white" stroke="white"/>
<path d="M1051.87 630.38L1051.87 630.379C1052.13 629.488 1053.07 628.969 1053.96 629.221L1053.96 629.221C1054.86 629.472 1055.36 630.39 1055.1 631.266C1054.83 632.153 1053.89 632.677 1053.01 632.425L1053 632.425C1052.11 632.174 1051.61 631.256 1051.87 630.38Z" fill="white" stroke="white"/>
<path d="M1497.11 531.944C1497.74 529.834 1499.97 528.597 1502.09 529.192C1504.21 529.786 1505.42 531.977 1504.79 534.083C1504.17 536.193 1501.94 537.429 1499.82 536.834C1497.7 536.24 1496.49 534.049 1497.11 531.944Z" fill="white" stroke="white"/>
<path d="M1313.87 -1.53712L1313.87 -1.53887C1314.56 -3.89776 1317.05 -5.27878 1319.42 -4.60987L1319.42 -4.60939C1321.79 -3.94921 1323.14 -1.50051 1322.44 0.848221L1322.44 0.849973C1321.75 3.20885 1319.26 4.58993 1316.89 3.92102C1314.52 3.25209 1313.17 0.809904 1313.87 -1.53712Z" fill="white" stroke="white"/>
<path d="M1137.34 739.537L1137.34 739.535C1137.87 737.726 1139.79 736.665 1141.6 737.179L1141.61 737.18C1143.42 737.685 1144.46 739.565 1143.92 741.364C1143.38 743.172 1141.48 744.235 1139.66 743.722L1139.66 743.721C1137.84 743.216 1136.81 741.336 1137.34 739.537Z" fill="white" stroke="white"/>
<path d="M859.798 643.269L859.798 643.268C860.47 640.996 862.862 639.671 865.141 640.313L865.142 640.313C867.424 640.952 868.719 643.305 868.047 645.565L868.047 645.565C867.375 647.837 864.983 649.162 862.704 648.521L862.703 648.52C860.421 647.881 859.126 645.528 859.798 643.269Z" fill="white" stroke="white"/>
<path d="M1347.29 267.663L1347.29 267.662C1347.84 265.788 1349.82 264.685 1351.71 265.217L1351.71 265.217C1353.6 265.742 1354.67 267.693 1354.12 269.564L1354.12 269.566C1353.56 271.439 1351.58 272.543 1349.69 272.011L1349.69 272.01C1347.81 271.486 1346.73 269.535 1347.29 267.663Z" fill="white" stroke="white"/>
<path d="M1756.59 416.027C1757.24 413.81 1759.58 412.508 1761.81 413.134C1764.04 413.759 1765.31 416.059 1764.66 418.269C1764 420.485 1761.66 421.787 1759.43 421.162C1757.2 420.537 1755.93 418.237 1756.59 416.027Z" fill="white" stroke="white"/>
<path d="M1756.03 743.966L1756.03 743.965C1756.54 742.238 1758.37 741.227 1760.1 741.713C1761.83 742.197 1762.82 743.994 1762.32 745.711L1762.32 745.712C1761.81 747.439 1759.98 748.449 1758.25 747.964L1758.25 747.963C1756.51 747.481 1755.52 745.684 1756.03 743.966Z" fill="white" stroke="white"/>
<path d="M1264.35 464.844C1265.04 462.493 1267.52 461.12 1269.89 461.777C1272.25 462.439 1273.59 464.876 1272.9 467.223C1272.21 469.574 1269.73 470.946 1267.36 470.289C1265 469.627 1263.66 467.191 1264.35 464.844Z" fill="white" stroke="white"/>
<path d="M1851.63 765.848C1852.36 763.394 1854.94 761.961 1857.42 762.648C1859.88 763.334 1861.28 765.881 1860.56 768.334C1859.84 770.787 1857.25 772.22 1854.78 771.533C1852.31 770.847 1850.91 768.301 1851.63 765.848Z" fill="white" stroke="white"/>
<path d="M408.7 492.201C408.96 491.327 409.89 490.808 410.773 491.056C411.653 491.303 412.154 492.215 411.897 493.083C411.637 493.958 410.707 494.476 409.824 494.228C408.944 493.981 408.443 493.07 408.7 492.201Z" fill="white" stroke="white"/>
<path d="M1359.48 754.205C1360.25 751.571 1363.03 750.028 1365.69 750.769C1368.34 751.51 1369.85 754.243 1369.07 756.881C1368.29 759.515 1365.51 761.058 1362.86 760.317C1360.21 759.576 1358.7 756.843 1359.48 754.205Z" fill="white" stroke="white"/>
<path d="M1446.49 514.675C1447.23 512.202 1449.83 510.759 1452.32 511.456C1454.8 512.152 1456.21 514.711 1455.48 517.18C1454.75 519.654 1452.15 521.096 1449.66 520.399C1447.17 519.704 1445.76 517.144 1446.49 514.675Z" fill="white" stroke="white"/>
<path d="M1846.6 515.284C1847.12 513.507 1849 512.461 1850.8 512.96C1852.59 513.458 1853.61 515.306 1853.09 517.087C1852.56 518.864 1850.68 519.91 1848.88 519.412C1847.1 518.913 1846.08 517.066 1846.6 515.284Z" fill="white" stroke="white"/>
<path d="M482.371 247.258L482.371 247.258C483.32 244.042 486.708 242.164 489.936 243.068L489.936 243.069C493.167 243.971 495.006 247.306 494.057 250.51L494.057 250.511C493.108 253.727 489.72 255.605 486.493 254.7L486.492 254.7C483.262 253.798 481.422 250.463 482.371 247.258Z" fill="white" stroke="white"/>
<path d="M971.584 682.379L971.585 682.379C972.941 682.757 973.708 684.153 973.311 685.499C972.915 686.848 971.493 687.635 970.139 687.255C968.787 686.875 968.017 685.479 968.413 684.143L968.453 684.007L968.453 684.006C968.9 682.737 970.274 682.011 971.584 682.379Z" fill="white" stroke="white"/>
<path d="M1473.26 173.786C1469.14 172.71 1466.7 168.456 1467.82 164.285C1468.94 160.113 1473.19 157.604 1477.32 158.68C1481.45 159.756 1483.89 164.01 1482.76 168.181C1481.64 172.353 1477.39 174.862 1473.26 173.786Z" fill="white" stroke="white"/>
<path d="M1272.95 56.7753L1272.95 56.7749C1273.69 54.2855 1276.32 52.8226 1278.83 53.5273L1278.83 53.5274C1281.33 54.2263 1282.76 56.8099 1282.02 59.303L1282.02 59.3035C1281.29 61.7928 1278.66 63.2559 1276.15 62.5512C1273.64 61.8474 1272.22 59.2686 1272.95 56.7753Z" fill="white" stroke="white"/>
<path d="M1261.15 404.726C1261.68 402.929 1263.57 401.874 1265.39 402.382C1267.19 402.891 1268.22 404.751 1267.69 406.549C1267.16 408.345 1265.27 409.4 1263.45 408.893C1261.64 408.384 1260.62 406.523 1261.15 404.726Z" fill="white" stroke="white"/>
<path d="M1198.01 560.005C1198.56 558.161 1200.5 557.077 1202.36 557.597C1204.21 558.115 1205.27 560.027 1204.73 561.865C1204.18 563.709 1202.24 564.793 1200.38 564.274C1198.53 563.755 1197.47 561.843 1198.01 560.005Z" fill="white" stroke="white"/>
<path d="M924.839 507.561C925.309 505.975 926.986 505.039 928.582 505.487C930.177 505.934 931.089 507.582 930.621 509.161C930.151 510.747 928.474 511.683 926.878 511.235C925.283 510.788 924.371 509.14 924.839 507.561Z" fill="white" stroke="white"/>
<path d="M1001.01 40.7231C996.593 39.1871 994.295 34.323 995.878 29.8595C997.46 25.3961 1002.32 23.0218 1006.74 24.5578C1011.16 26.0938 1013.46 30.9579 1011.87 35.4214C1010.29 39.8849 1005.43 42.2591 1001.01 40.7231Z" fill="white" stroke="white"/>
<path d="M1267.93 204.134C1268.62 201.775 1271.11 200.393 1273.49 201.054C1275.86 201.714 1277.21 204.163 1276.52 206.519C1275.82 208.877 1273.33 210.26 1270.96 209.598C1268.59 208.938 1267.24 206.489 1267.93 204.134Z" fill="white" stroke="white"/>
</g>
</svg>
