<svg width="24" height="24" viewBox="0 0 24 24" fill="none" xmlns="http://www.w3.org/2000/svg">
<path d="M24.0027 22.5858L17.7407 16.3238C19.3673 14.3344 20.1671 11.7959 19.9746 9.23334C19.782 6.67081 18.6119 4.28031 16.7063 2.5563C14.8007 0.832292 12.3053 -0.0933258 9.73635 -0.029094C7.1674 0.0351378 4.72141 1.08431 2.90432 2.9014C1.08723 4.71848 0.0380675 7.16447 -0.0261643 9.73342C-0.0903961 12.3024 0.835222 14.7977 2.55923 16.7034C4.28324 18.609 6.67374 19.7791 9.23627 19.9716C11.7988 20.1642 14.3373 19.3644 16.3267 17.7378L22.5887 23.9998L24.0027 22.5858ZM10.0027 17.9998C8.42046 17.9998 6.87374 17.5306 5.55815 16.6515C4.24256 15.7725 3.21718 14.5231 2.61168 13.0612C2.00617 11.5994 1.84775 9.99091 2.15643 8.43906C2.46511 6.88721 3.22704 5.46175 4.34586 4.34293C5.46468 3.22411 6.89014 2.46218 8.44199 2.1535C9.99384 1.84482 11.6024 2.00324 13.0642 2.60875C14.526 3.21425 15.7754 4.23963 16.6545 5.55522C17.5335 6.87081 18.0027 8.41753 18.0027 9.99978C18.0003 12.1208 17.1567 14.1542 15.6569 15.654C14.1572 17.1538 12.1237 17.9974 10.0027 17.9998Z" fill="white"/>
</svg>
