<svg width="20" height="20" viewBox="0 0 20 20" fill="none" xmlns="http://www.w3.org/2000/svg">
<g opacity="0.6" clip-path="url(#clip0_523_3193)">
<path d="M14.166 11.6667C14.166 11.8877 14.0782 12.0997 13.9219 12.2559C13.7657 12.4122 13.5537 12.5 13.3327 12.5H6.66602C6.445 12.5 6.23304 12.4122 6.07676 12.2559C5.92048 12.0997 5.83268 11.8877 5.83268 11.6667C5.83268 11.4457 5.92048 11.2337 6.07676 11.0774C6.23304 10.9211 6.445 10.8334 6.66602 10.8334H13.3327C13.5537 10.8334 13.7657 10.9211 13.9219 11.0774C14.0782 11.2337 14.166 11.4457 14.166 11.6667ZM10.8327 14.1667H6.66602C6.445 14.1667 6.23304 14.2545 6.07676 14.4108C5.92048 14.567 5.83268 14.779 5.83268 15C5.83268 15.221 5.92048 15.433 6.07676 15.5893C6.23304 15.7456 6.445 15.8334 6.66602 15.8334H10.8327C11.0537 15.8334 11.2657 15.7456 11.4219 15.5893C11.5782 15.433 11.666 15.221 11.666 15C11.666 14.779 11.5782 14.567 11.4219 14.4108C11.2657 14.2545 11.0537 14.1667 10.8327 14.1667ZM18.3327 8.73752V15.8334C18.3314 16.938 17.8919 17.9971 17.1108 18.7782C16.3297 19.5593 15.2707 19.9987 14.166 20H5.83268C4.72802 19.9987 3.66898 19.5593 2.88787 18.7782C2.10675 17.9971 1.66734 16.938 1.66602 15.8334V4.16669C1.66734 3.06202 2.10675 2.00298 2.88787 1.22187C3.66898 0.440754 4.72802 0.00134242 5.83268 1.92072e-05H9.59518C10.3615 -0.00195323 11.1207 0.148009 11.8287 0.441235C12.5367 0.734461 13.1796 1.16513 13.7202 1.70835L16.6235 4.61335C17.167 5.15355 17.598 5.79623 17.8914 6.50416C18.1848 7.21209 18.3348 7.9712 18.3327 8.73752ZM12.5418 2.88669C12.2796 2.63265 11.9851 2.41412 11.666 2.23669V5.83335C11.666 6.05437 11.7538 6.26633 11.9101 6.42261C12.0664 6.57889 12.2783 6.66668 12.4993 6.66668H16.096C15.9185 6.34768 15.6996 6.05347 15.4452 5.79168L12.5418 2.88669ZM16.666 8.73752C16.666 8.60002 16.6393 8.46835 16.6268 8.33335H12.4993C11.8363 8.33335 11.2004 8.06996 10.7316 7.60112C10.2627 7.13228 9.99935 6.49639 9.99935 5.83335V1.70585C9.86435 1.69335 9.73185 1.66669 9.59518 1.66669H5.83268C5.16964 1.66669 4.53376 1.93008 4.06492 2.39892C3.59607 2.86776 3.33268 3.50364 3.33268 4.16669V15.8334C3.33268 16.4964 3.59607 17.1323 4.06492 17.6011C4.53376 18.07 5.16964 18.3333 5.83268 18.3333H14.166C14.8291 18.3333 15.4649 18.07 15.9338 17.6011C16.4026 17.1323 16.666 16.4964 16.666 15.8334V8.73752Z" fill="#243B54"/>
</g>
<defs>
<clipPath id="clip0_523_3193">
<rect width="20" height="20" fill="white"/>
</clipPath>
</defs>
</svg>
