<svg width="20" height="18" viewBox="0 0 20 18" fill="none" xmlns="http://www.w3.org/2000/svg">
<path d="M13.2936 8.61555C13.2936 10.4367 11.822 11.9083 10.0008 11.9083C8.17965 11.9083 6.70801 10.4367 6.70801 8.61555C6.70801 6.79439 8.17965 5.32275 10.0008 5.32275C11.822 5.32275 13.2936 6.79439 13.2936 8.61555Z" stroke="#7C8998" stroke-width="1.6" stroke-linecap="round" stroke-linejoin="round"/>
<path d="M10 16.2223C13.2468 16.2223 16.2729 14.3091 18.3792 10.998C19.207 9.70107 19.207 7.5212 18.3792 6.22432C16.2729 2.91313 13.2468 1 10 1C6.75319 1 3.72713 2.91313 1.62085 6.22432C0.793051 7.5212 0.793051 9.70107 1.62085 10.998C3.72713 14.3091 6.75319 16.2223 10 16.2223Z" stroke="#7C8998" stroke-width="1.6" stroke-linecap="round" stroke-linejoin="round"/>
</svg>
